<svg width="24" height="24" viewBox="0 0 24 24" fill="none" xmlns="http://www.w3.org/2000/svg">
<path fill-rule="evenodd" clip-rule="evenodd" d="M3.98758 3H19.8882C20.4153 3 20.9209 3.2094 21.2936 3.58215C21.6664 3.95489 21.8758 4.46044 21.8758 4.98758V12.7491C20.9721 12.2183 19.9424 11.9402 18.8944 11.9441C17.313 11.9441 15.7963 12.5723 14.6781 13.6905C13.5599 14.8088 12.9317 16.3254 12.9317 17.9068C12.931 18.2401 12.9609 18.5728 13.0211 18.9006H3.98758C3.46044 18.9006 2.95489 18.6912 2.58215 18.3185C2.2094 17.9457 2 17.4402 2 16.913V4.98758C2 4.46044 2.2094 3.95489 2.58215 3.58215C2.95489 3.2094 3.46044 3 3.98758 3ZM3.98758 9.95652H19.8882V6.97516H3.98758V9.95652ZM19.701 18.6795H20.0153L22 20.6682L21.4074 21.2609L19.4186 19.2761V18.9619L19.3113 18.8505C18.8578 19.2403 18.2692 19.475 17.6288 19.475C16.2009 19.475 15.0435 18.3176 15.0435 16.8897C15.0435 15.4618 16.2009 14.3043 17.6288 14.3043C19.0567 14.3043 20.2141 15.4618 20.2141 16.8897C20.2141 17.53 19.9795 18.1187 19.5897 18.5721L19.701 18.6795ZM15.8392 16.8897C15.8392 17.8801 16.6386 18.6795 17.629 18.6795C18.6194 18.6795 19.4189 17.8801 19.4189 16.8897C19.4189 15.8993 18.6194 15.0998 17.629 15.0998C16.6386 15.0998 15.8392 15.8993 15.8392 16.8897Z" fill="black"/>
</svg>
