<svg width="126" height="35" viewBox="0 0 126 35" fill="none" xmlns="http://www.w3.org/2000/svg">
<mask id="mask0_7779_635296" style="mask-type:luminance" maskUnits="userSpaceOnUse" x="0" y="0" width="126" height="35">
<path d="M126 0H0V34.1915H126V0Z" fill="white"/>
</mask>
<g mask="url(#mask0_7779_635296)">
<path d="M83.5176 16.6377H86.9393C89.4035 16.6377 91.0924 18.1407 91.0924 20.4469C91.0924 22.7532 89.4035 24.2593 86.9393 24.2593H83.5176V16.6377ZM86.8514 22.8097C88.3456 22.8097 89.325 21.906 89.325 20.4469C89.325 18.9879 88.3456 18.0842 86.8514 18.0842H85.2598V22.8097H86.8514Z" fill="white"/>
<path d="M92.1064 16.6377H93.8487V24.2593H92.1064V16.6377Z" fill="white"/>
<path d="M100.425 20.3276H102.017V23.4183C101.187 24.049 100.048 24.3878 98.9715 24.3878C96.6045 24.3878 94.8623 22.7437 94.8623 20.4468C94.8623 18.15 96.6045 16.5059 99.0029 16.5059C100.324 16.5059 101.423 16.964 102.154 17.8237L101.037 18.8686C100.488 18.2818 99.8537 18.0089 99.0908 18.0089C97.6279 18.0089 96.6265 19.0003 96.6265 20.4468C96.6265 21.8745 97.6279 22.8849 99.0688 22.8849C99.5427 22.8849 99.9823 22.797 100.425 22.5585V20.3276Z" fill="white"/>
<path d="M103.332 16.6377H105.074V24.2593H103.332V16.6377Z" fill="white"/>
<path d="M108.123 18.0748H105.712V16.6377H112.273V18.0748H109.862V24.2593H108.12V18.0748H108.123Z" fill="white"/>
<path d="M117.496 22.6244H113.999L113.333 24.256H111.547L114.903 16.6345H116.624L119.992 24.256H118.162L117.496 22.6244ZM116.947 21.2877L115.754 18.3696L114.561 21.2877H116.947Z" fill="white"/>
<path d="M120.481 16.6377H122.224V22.8222H126V24.2593H120.481V16.6377Z" fill="white"/>
<path d="M83.4922 10.199H85.5577C86.9579 10.199 87.9215 10.9929 87.9215 12.2918C87.9215 13.5909 86.9579 14.3847 85.5577 14.3847H83.4922V10.199ZM85.495 13.2834C86.0883 13.2834 86.4933 12.9319 86.4933 12.2918C86.4933 11.6518 86.0852 11.3003 85.495 11.3003H84.9017V13.2865H85.495V13.2834Z" fill="white"/>
<path d="M88.6035 10.199H90.0161V14.3847H88.6035V10.199Z" fill="white"/>
<path d="M90.6846 14.0803L91.1397 13.0511C91.5353 13.2834 92.0626 13.434 92.5209 13.434C92.9228 13.434 93.064 13.3492 93.064 13.208C93.064 12.6809 90.7473 13.1076 90.7473 11.5451C90.7473 10.7668 91.4003 10.1331 92.6968 10.1331C93.2587 10.1331 93.8394 10.2523 94.2758 10.497L93.8519 11.52C93.4376 11.3097 93.0515 11.2092 92.6842 11.2092C92.2698 11.2092 92.1411 11.3286 92.1411 11.4729C92.1411 11.9749 94.4578 11.5575 94.4578 13.1013C94.4578 13.867 93.8049 14.5134 92.5084 14.5134C91.8084 14.5102 91.1051 14.3376 90.6846 14.0803Z" fill="white"/>
<path d="M95.952 11.3222H94.7246V10.2271H98.5889V11.3222H97.3615V14.416H95.9489V11.3222H95.952Z" fill="white"/>
<path d="M99.2988 10.2271H100.712V14.4129H99.2988V10.2271Z" fill="white"/>
<path d="M105.686 10.2271V14.4129H104.525L102.933 12.5113V14.4129H101.559V10.2271H102.72L104.312 12.1285V10.2271H105.686Z" fill="white"/>
<path d="M107.47 11.3222H106.242V10.2271H110.107V11.3222H108.88V14.416H107.467V11.3222H107.47Z" fill="white"/>
<path d="M110.696 10.2271H112.109V14.4129H110.696V10.2271Z" fill="white"/>
<path d="M117.43 10.2271L115.66 14.4129H114.272L112.502 10.2271H114.021L115.019 12.6745L116.043 10.2271H117.43Z" fill="white"/>
<path d="M117.496 12.32C117.496 11.0524 118.494 10.1299 119.86 10.1299C121.225 10.1299 122.224 11.0524 122.224 12.32C122.224 13.5876 121.225 14.5102 119.86 14.5102C118.494 14.5102 117.496 13.5876 117.496 12.32ZM120.799 12.32C120.799 11.6673 120.381 11.272 119.86 11.272C119.339 11.272 118.922 11.6673 118.922 12.32C118.922 12.9727 119.339 13.368 119.86 13.368C120.381 13.368 120.799 12.9727 120.799 12.32Z" fill="white"/>
<path d="M79.377 13.8168L78.0711 15.1817C78.294 15.8062 78.4226 16.4776 78.4226 17.1773C78.4226 20.4626 75.7575 23.1265 72.4708 23.1265C69.1841 23.1265 66.5189 20.4626 66.5189 17.1773C66.5189 13.8921 69.1841 11.2282 72.4708 11.2282C73.7327 11.2282 74.9005 11.6235 75.8643 12.2918L77.2455 11.1623C75.9302 10.1237 74.2727 9.49927 72.4676 9.49927C68.2235 9.49927 64.7861 12.9383 64.7861 17.1773C64.7861 21.4164 68.2266 24.8553 72.4676 24.8553C76.7119 24.8553 80.1493 21.4164 80.1493 17.1773C80.1524 15.9724 79.8729 14.8334 79.377 13.8168Z" fill="white"/>
<path d="M82.1934 9.52441C78.3134 11.451 74.876 14.1275 72.0758 17.3687C72.057 17.397 72.0444 17.4159 72.0444 17.4159L72.0413 17.4096L70.1578 14.4789L67.6904 16.189L72.2077 21.3694C72.2077 21.3694 72.2265 21.3411 72.2579 21.291C74.2073 17.5978 76.8536 14.3283 80.0211 11.6581C80.1153 11.5733 80.2063 11.4855 80.3005 11.404C80.7242 11.0588 81.101 10.7701 81.4118 10.5379L81.7225 10.3214C81.936 10.1645 82.1525 10.0108 82.3723 9.85702L82.1934 9.52441Z" fill="white"/>
<path d="M57.8771 10.2397H57.6416V24.3157H57.8771V10.2397Z" fill="white"/>
<path d="M0.910359 16.6408C0.941751 16.4682 0.973143 15.2539 0.973143 14.7487V12.9256C0.973143 12.2981 0.973143 11.2563 0.882107 11.1529C0.778515 11.0305 0.323335 10.9112 0 10.8296L0.109871 10.3245H1.58842C1.93373 10.3245 3.03557 10.2649 3.50332 10.2649C5.23614 10.2649 6.26892 11.0556 6.26892 12.524C6.26892 14.1023 5.18591 15.0059 3.39345 15.0059C2.9571 15.0059 2.60237 14.9746 2.28846 14.9338C2.28846 15.5425 2.28846 16.4839 2.37949 16.5937C2.50192 16.716 3.13917 16.807 3.58493 16.9074L3.47506 17.4126H0.109871L0 16.9043L0.910359 16.6408ZM4.41681 11.2533C4.15313 11.0901 3.77956 10.9897 3.32125 10.9897C2.98849 10.9897 2.59296 11.0398 2.33869 11.0994C2.31985 11.3411 2.28846 12.5084 2.28846 12.9727V14.1054C2.60237 14.1556 2.98849 14.1964 3.27102 14.1964C3.67597 14.1964 4.09033 14.1368 4.37601 14.005C4.63969 13.7822 4.89396 13.3367 4.89396 12.5774C4.89396 11.9436 4.67108 11.5168 4.41681 11.2533Z" fill="white"/>
<path d="M7.88811 16.6408C7.9195 16.4682 7.94776 15.2539 7.94776 14.7487V12.9257C7.94776 12.2981 7.94776 11.2753 7.86614 11.1654C7.7751 11.0431 7.3105 10.9239 6.97461 10.8329L7.08448 10.3277H8.55362C8.90834 10.3277 10.0321 10.2681 10.5187 10.2681C12.2202 10.2681 13.2341 10.927 13.2341 12.2417C13.2341 13.1642 12.556 13.7509 11.9282 14.0647C12.3552 14.9056 13.1242 16.3114 13.3566 16.6471L14.135 16.9107L14.0252 17.4159C13.4695 17.4159 12.961 17.4346 12.2328 17.4566C12.0099 16.9389 11.269 15.461 10.7542 14.4789H9.2662V14.8115C9.2662 15.4391 9.2662 16.4619 9.34782 16.5718C9.43887 16.6942 9.90346 16.8134 10.2394 16.9044L10.1294 17.4096H7.09076L6.98089 16.9044L7.88811 16.6408ZM9.2662 13.6631L11.0901 13.7227C11.495 13.4905 11.8686 12.9728 11.8686 12.295C11.8686 11.8087 11.7179 11.4949 11.5045 11.2627C11.2502 11.0807 10.8044 10.9898 10.299 10.9898C9.98509 10.9898 9.59896 11.0399 9.32585 11.0902C9.29445 11.2941 9.2662 12.4771 9.2662 12.9822V13.6631Z" fill="white"/>
<path d="M14.5684 14.0803C14.5684 11.7207 16.047 10.1707 18.1941 10.1707C20.1405 10.1707 21.4777 11.5482 21.4777 13.685C21.4777 15.9441 20.0588 17.5632 17.9619 17.5632C15.9465 17.5632 14.5684 16.1951 14.5684 14.0803ZM19.453 16.2265C19.7166 15.8813 20.0902 15.1127 20.0902 13.8669C20.0902 12.1349 19.4623 11.0524 18.0027 11.0524C17.4564 11.0524 16.9479 11.2563 16.6152 11.4979C16.2415 12.0157 15.956 12.8346 15.956 13.9486C15.956 15.6398 16.6748 16.6815 18.0623 16.6815C18.6713 16.6815 19.1579 16.4775 19.453 16.2265Z" fill="white"/>
<path d="M23.3149 16.6408C23.3463 16.4683 23.3745 15.2539 23.3745 14.7487V12.9257C23.3745 12.2982 23.3745 11.2564 23.2835 11.1529C23.183 11.0305 22.7278 10.9113 22.4014 10.8298L22.5112 10.3246H25.1544C26.3504 10.3246 27.311 10.3057 28.1114 10.2429C28.1837 10.3339 28.3029 10.516 28.3532 10.5975C28.281 11.0839 28.1398 11.8621 28.0707 12.3296C27.8792 12.339 27.4743 12.3201 27.2607 12.2794L27.0473 11.065C26.7239 11.0242 26.2688 11.0149 25.8513 11.0149C25.4463 11.0149 25.0822 11.0242 24.7463 11.0337C24.7275 11.247 24.6866 12.4707 24.6866 12.979V13.7384L26.9468 13.6474L27.1195 13.8607C27.0881 14.0334 27.0378 14.3471 26.9971 14.5291L24.6866 14.4569V14.8115C24.6866 15.4202 24.6772 16.4713 24.7777 16.5938C24.9001 16.7161 25.5374 16.8071 25.9831 16.9076L25.8732 17.4127H22.5143L22.4045 16.9076L23.3149 16.6408Z" fill="white"/>
<path d="M30.2992 16.6408C30.3306 16.4683 30.3589 15.2539 30.3589 14.7487V12.9257C30.3589 12.2982 30.3589 11.2564 30.2678 11.1529C30.1674 11.0305 29.7122 10.9113 29.3857 10.8298L29.4956 10.3246H32.1388C33.3536 10.3246 34.3362 10.3057 35.1462 10.2429C35.2183 10.3339 35.3376 10.516 35.3879 10.5975C35.3156 11.0839 35.1744 11.8621 35.1053 12.3296C34.9138 12.339 34.5089 12.3201 34.2954 12.2794L34.0819 11.0556C33.7492 11.0242 33.272 11.0149 32.8357 11.0149C32.4308 11.0149 32.0572 11.0242 31.7307 11.0337C31.7119 11.247 31.6711 12.4707 31.6711 12.979V13.5752L33.9312 13.4842L34.104 13.6882C34.0726 13.8607 34.0129 14.184 33.9815 14.3566L31.6711 14.2844V14.8115C31.6711 15.439 31.6616 16.4117 31.7621 16.5843C31.872 16.7067 32.5218 16.7349 32.9769 16.7349C33.4227 16.7349 33.8874 16.6941 34.2232 16.6534L34.5057 15.4077C34.7097 15.3983 35.1744 15.4171 35.3659 15.4485C35.3973 16.0855 35.3973 16.7444 35.3659 17.4127H29.4988L29.3889 16.9076L30.2992 16.6408Z" fill="white"/>
<path d="M41.4372 16.3772C41.5094 16.0822 41.6192 15.6774 41.7416 15.1127C41.9143 15.1032 42.4699 15.122 42.6426 15.1534C42.674 15.5393 42.674 16.2171 42.674 16.5905L42.5422 16.8635C41.974 17.2494 41.0636 17.5632 40.0308 17.5632C37.8617 17.5632 36.4961 16.1951 36.4961 13.9486C36.4961 11.6705 38.1379 10.1707 40.2129 10.1707C41.1452 10.1707 41.9143 10.4248 42.5735 10.7574L42.7148 11.0304C42.6332 11.5576 42.5013 12.2761 42.4103 12.7813C42.2282 12.7907 41.773 12.7813 41.569 12.7405C41.478 12.1317 41.3649 11.5858 41.3147 11.3034C41.0322 11.1403 40.6147 11.0398 40.1501 11.0398C39.5631 11.0398 39.0451 11.1904 38.6904 11.4446C38.2258 11.9999 37.8993 12.822 37.8993 13.8638C37.8993 15.5551 38.7312 16.647 40.1689 16.647C40.7685 16.6501 41.1923 16.5497 41.4372 16.3772Z" fill="white"/>
<path d="M43.8447 14.0803C43.8447 11.7207 45.3232 10.1707 47.4704 10.1707C49.4167 10.1707 50.754 11.5482 50.754 13.685C50.754 15.9441 49.3351 17.5632 47.2382 17.5632C45.2229 17.5632 43.8447 16.1951 43.8447 14.0803ZM48.7292 16.2265C48.993 15.8813 49.3665 15.1127 49.3665 13.8669C49.3665 12.1349 48.7387 11.0524 47.2789 11.0524C46.7328 11.0524 46.2242 11.2563 45.8914 11.4979C45.5179 12.0157 45.2322 12.8346 45.2322 13.9486C45.2322 15.6398 45.9511 16.6815 47.3386 16.6815C47.9476 16.6815 48.4342 16.4775 48.7292 16.2265Z" fill="white"/>
<path d="M1.28078 20.9018C1.28078 21.2313 1.03279 21.4352 0.640391 21.4352H0.34217V21.8431H0V20.3652H0.640391C1.03592 20.3684 1.28078 20.5724 1.28078 20.9018ZM0.935472 20.9018C0.935472 20.7387 0.828741 20.6445 0.621556 20.6445H0.34217V21.156H0.621556C0.828741 21.1591 0.935472 21.065 0.935472 20.9018Z" fill="white"/>
<path d="M2.67808 21.8431L2.39242 21.4321H2.37673H2.0785V21.8431H1.73633V20.3652H2.37673C2.77226 20.3652 3.01711 20.5692 3.01711 20.9018C3.01711 21.1246 2.9041 21.2846 2.71262 21.3693L3.04536 21.8431H2.67808ZM2.35788 20.6445H2.0785V21.1591H2.35788C2.56821 21.1591 2.67181 21.0618 2.67181 20.9018C2.67181 20.7418 2.56508 20.6445 2.35788 20.6445Z" fill="white"/>
<path d="M3.40625 21.1057C3.40625 20.6664 3.74841 20.3433 4.21615 20.3433C4.68075 20.3433 5.02606 20.6664 5.02606 21.1057C5.02606 21.5481 4.68075 21.8682 4.21615 21.8682C3.74841 21.8682 3.40625 21.545 3.40625 21.1057ZM4.67761 21.1057C4.67761 20.8265 4.47984 20.6319 4.21615 20.6319C3.95247 20.6319 3.75469 20.8233 3.75469 21.1057C3.75469 21.385 3.95247 21.5795 4.21615 21.5795C4.47984 21.5795 4.67761 21.385 4.67761 21.1057Z" fill="white"/>
<path d="M5.39941 21.1057C5.39941 20.6602 5.74159 20.3433 6.20304 20.3433C6.45732 20.3433 6.67078 20.4374 6.81204 20.6037L6.5923 20.8077C6.49185 20.6947 6.36942 20.635 6.22188 20.635C5.94563 20.635 5.74787 20.8296 5.74787 21.1088C5.74787 21.3881 5.94563 21.5827 6.22188 21.5827C6.36942 21.5827 6.49499 21.523 6.5923 21.407L6.81204 21.6109C6.67392 21.7804 6.46046 21.8745 6.20304 21.8745C5.74159 21.8682 5.39941 21.5513 5.39941 21.1057Z" fill="white"/>
<path d="M7.22656 21.1936V20.3652H7.56873V21.181C7.56873 21.4604 7.69116 21.5764 7.89834 21.5764C8.10866 21.5764 8.22795 21.4604 8.22795 21.181V20.3652H8.56699V21.1936C8.56699 21.6298 8.31899 21.8683 7.89834 21.8683C7.47455 21.8683 7.22656 21.6298 7.22656 21.1936Z" fill="white"/>
<path d="M10.055 21.8431L9.76937 21.4321H9.75368H9.45546V21.8431H9.11328V20.3652H9.75368C10.1492 20.3652 10.394 20.5692 10.394 20.9018C10.394 21.1246 10.2811 21.2846 10.0896 21.3693L10.4223 21.8431H10.055ZM9.73484 20.6445H9.45546V21.1591H9.73484C9.94517 21.1591 10.0487 21.0618 10.0487 20.9018C10.0487 20.7418 9.94203 20.6445 9.73484 20.6445Z" fill="white"/>
<path d="M11.8506 21.5262H11.1631L11.0313 21.8431H10.6797L11.3389 20.3652H11.6779L12.3371 21.8431H11.9793L11.8506 21.5262ZM11.7407 21.269L11.5053 20.7042L11.2698 21.269H11.7407Z" fill="white"/>
<path d="M12.7041 20.3684H13.3759C13.8593 20.3684 14.1921 20.6602 14.1921 21.1058C14.1921 21.5544 13.8593 21.8431 13.3759 21.8431H12.7041V20.3684ZM13.3602 21.5638C13.6522 21.5638 13.8468 21.3882 13.8468 21.1058C13.8468 20.8234 13.6553 20.6476 13.3602 20.6476H13.0463V21.5638H13.3602Z" fill="white"/>
<path d="M14.6475 21.1936V20.3652H14.9897V21.181C14.9897 21.4604 15.1121 21.5764 15.3193 21.5764C15.5297 21.5764 15.6489 21.4604 15.6489 21.181V20.3652H15.9879V21.1936C15.9879 21.6298 15.7399 21.8683 15.3193 21.8683C14.8955 21.8683 14.6475 21.6298 14.6475 21.1936Z" fill="white"/>
<path d="M17.476 21.8431L17.1903 21.4321H17.1745H16.8764V21.8431H16.5342V20.3652H17.1745C17.5701 20.3652 17.815 20.5692 17.815 20.9018C17.815 21.1246 17.702 21.2846 17.5105 21.3693L17.8432 21.8431H17.476ZM17.1558 20.6445H16.8764V21.1591H17.1558C17.366 21.1591 17.4697 21.0618 17.4697 20.9018C17.4697 20.7418 17.366 20.6445 17.1558 20.6445Z" fill="white"/>
<path d="M18.562 19.9417H18.9167L18.5338 20.246H18.2764L18.562 19.9417ZM18.2983 20.3684H18.6405V21.8462H18.2983V20.3684Z" fill="white"/>
<path d="M20.1749 21.5262H19.4874L19.3555 21.8431H19.0039L19.6632 20.3652H20.0022L20.6614 21.8431H20.3036L20.1749 21.5262ZM20.065 21.269L19.8296 20.7042L19.5941 21.269H20.065Z" fill="white"/>
<path d="M22.1811 20.6415V21.0306H22.8654V21.3036H22.1811V21.8401H21.8389V20.3623H22.9564V20.6352H22.1811V20.6415Z" fill="white"/>
<path d="M24.5421 21.5702V21.8431H23.3994V20.3652H24.517V20.6383H23.7416V20.9583H24.429V21.225H23.7416V21.567H24.5421V21.5702Z" fill="white"/>
<path d="M25.0283 20.3684H25.7001C26.1836 20.3684 26.5163 20.6602 26.5163 21.1058C26.5163 21.5544 26.1836 21.8431 25.7001 21.8431H25.0283V20.3684ZM25.6812 21.5638C25.9732 21.5638 26.1678 21.3882 26.1678 21.1058C26.1678 20.8234 25.9763 20.6476 25.6812 20.6476H25.3673V21.5638H25.6812Z" fill="white"/>
<path d="M28.127 21.5702V21.8431H26.9844V20.3652H28.1019V20.6383H27.3266V20.9583H28.014V21.225H27.3266V21.567H28.127V21.5702Z" fill="white"/>
<path d="M29.5521 21.8431L29.2664 21.4321H29.2507H28.9525V21.8431H28.6104V20.3652H29.2507C29.6463 20.3652 29.8911 20.5692 29.8911 20.9018C29.8911 21.1246 29.7781 21.2846 29.5867 21.3693L29.9194 21.8431H29.5521ZM29.2319 20.6445H28.9525V21.1591H29.2319C29.4422 21.1591 29.5458 21.0618 29.5458 20.9018C29.5458 20.7418 29.439 20.6445 29.2319 20.6445Z" fill="white"/>
<path d="M31.3476 21.5262H30.6601L30.5283 21.8431H30.1768L30.836 20.3652H31.175L31.8342 21.8431H31.4763L31.3476 21.5262ZM31.2378 21.269L31.0023 20.7042L30.7669 21.269H31.2378Z" fill="white"/>
<path d="M32.2012 20.3684H32.5434V21.567H33.2842V21.8462H32.2012V20.3684Z" fill="white"/>
<path d="M0 22.8066H0.671782C1.15521 22.8066 1.48797 23.0984 1.48797 23.544C1.48797 23.9927 1.15521 24.2814 0.671782 24.2814H0V22.8066ZM0.652947 24.002C0.94489 24.002 1.13952 23.8264 1.13952 23.544C1.13952 23.2616 0.948029 23.0859 0.652947 23.0859H0.339031V24.002H0.652947Z" fill="white"/>
<path d="M3.09872 24.0081V24.2811H1.95605V22.8032H3.07361V23.0762H2.29509V23.3962H2.98257V23.663H2.29509V24.005H3.09872V24.0081Z" fill="white"/>
<path d="M3.58203 22.8066H3.92421V24.0052H4.66505V24.2844H3.58203V22.8066Z" fill="white"/>
<path d="M5.78516 23.544C5.78516 23.0984 6.12732 22.7815 6.58877 22.7815C6.84305 22.7815 7.05652 22.8756 7.19778 23.0419L6.97804 23.2458C6.87759 23.1329 6.75516 23.0733 6.60762 23.0733C6.33137 23.0733 6.1336 23.2678 6.1336 23.5471C6.1336 23.8263 6.33137 24.0209 6.60762 24.0209C6.75516 24.0209 6.88072 23.9612 6.97804 23.8451L7.19778 24.0491C7.05966 24.2185 6.84619 24.3126 6.58877 24.3126C6.12732 24.3064 5.78516 23.9895 5.78516 23.544Z" fill="white"/>
<path d="M7.51172 23.544C7.51172 23.1047 7.85389 22.7815 8.32163 22.7815C8.78622 22.7815 9.13153 23.1047 9.13153 23.544C9.13153 23.9864 8.78622 24.3064 8.32163 24.3064C7.85389 24.3064 7.51172 23.9832 7.51172 23.544ZM8.78308 23.544C8.78308 23.2647 8.58531 23.0702 8.32163 23.0702C8.05793 23.0702 7.86016 23.2616 7.86016 23.544C7.86016 23.8232 8.05793 24.0178 8.32163 24.0178C8.58531 24.0178 8.78308 23.8232 8.78308 23.544Z" fill="white"/>
<path d="M10.9528 22.8066V24.2844H10.6734L9.93571 23.3871V24.2844H9.59668V22.8066H9.87921L10.6138 23.704V22.8066H10.9528Z" fill="white"/>
<path d="M11.3984 24.137L11.5146 23.8797C11.6402 23.9706 11.8254 24.0334 12.0011 24.0334C12.2052 24.0334 12.2868 23.9643 12.2868 23.8765C12.2868 23.6004 11.4266 23.7887 11.4266 23.2427C11.4266 22.9917 11.6307 22.7815 12.0482 22.7815C12.2334 22.7815 12.4249 22.8254 12.56 22.9133L12.4532 23.1736C12.315 23.0952 12.1738 23.0576 12.0451 23.0576C11.841 23.0576 11.7657 23.1329 11.7657 23.227C11.7657 23.5 12.6258 23.3117 12.6258 23.8546C12.6258 24.1024 12.4218 24.3126 11.998 24.3126C11.7657 24.3064 11.5302 24.2374 11.3984 24.137Z" fill="white"/>
<path d="M13.0625 23.6316V22.8032H13.4047V23.619C13.4047 23.8982 13.5271 24.0144 13.7343 24.0144C13.9446 24.0144 14.0639 23.8982 14.0639 23.619V22.8032H14.4029V23.6316C14.4029 24.0677 14.1549 24.3062 13.7343 24.3062C13.3105 24.3062 13.0625 24.0677 13.0625 23.6316Z" fill="white"/>
<path d="M16.2919 24.2811L16.2888 23.3962L15.8525 24.1273H15.6987L15.2655 23.4151V24.2811H14.9453V22.8032H15.2278L15.7803 23.7226L16.3265 22.8032H16.6059L16.609 24.2811H16.2919Z" fill="white"/>
<path d="M17.1777 22.8066H17.5199V24.2844H17.1777V22.8066Z" fill="white"/>
<path d="M18.082 22.8066H18.7538C19.2372 22.8066 19.57 23.0984 19.57 23.544C19.57 23.9927 19.2372 24.2814 18.7538 24.2814H18.082V22.8066ZM18.735 24.002C19.0269 24.002 19.2215 23.8264 19.2215 23.544C19.2215 23.2616 19.03 23.0859 18.735 23.0859H18.4211V24.002H18.735Z" fill="white"/>
<path d="M19.9434 23.544C19.9434 23.1047 20.2856 22.7815 20.7533 22.7815C21.2179 22.7815 21.5632 23.1047 21.5632 23.544C21.5632 23.9864 21.2179 24.3064 20.7533 24.3064C20.2856 24.3064 19.9434 23.9832 19.9434 23.544ZM21.2147 23.544C21.2147 23.2647 21.0171 23.0702 20.7533 23.0702C20.4896 23.0702 20.2919 23.2616 20.2919 23.544C20.2919 23.8232 20.4896 24.0178 20.7533 24.0178C21.0139 24.0178 21.2147 23.8232 21.2147 23.544Z" fill="white"/>
<path d="M22.9691 24.2811L22.6834 23.87H22.6677H22.3695V24.2811H22.0273V22.8032H22.6677C23.0633 22.8032 23.3081 23.0072 23.3081 23.3397C23.3081 23.5625 23.195 23.7226 23.0035 23.8072L23.3364 24.2811H22.9691ZM22.6489 23.0824H22.3695V23.5971H22.6489C22.8592 23.5971 22.9628 23.4998 22.9628 23.3397C22.9628 23.1797 22.8592 23.0824 22.6489 23.0824Z" fill="white"/>
</g>
</svg>
