<svg width="24" height="24" viewBox="0 0 24 24" fill="none" xmlns="http://www.w3.org/2000/svg">
<mask id="mask0_12179_796585" style="mask-type:luminance" maskUnits="userSpaceOnUse" x="3" y="3" width="18" height="18">
<path d="M20.5711 3.42847H3.42822V20.5713H20.5711V3.42847Z" fill="white"/>
</mask>
<g mask="url(#mask0_12179_796585)">
<path d="M8.44971 3.48866C7.5377 3.53169 6.91491 3.67723 6.37045 3.89117C5.80696 4.11077 5.32936 4.40546 4.85416 4.88237C4.37896 5.35929 4.08635 5.83723 3.86829 6.40157C3.65726 6.94723 3.51429 7.57054 3.47401 8.48306C3.43372 9.39557 3.42481 9.68889 3.42927 12.0165C3.43372 14.3442 3.44401 14.636 3.48824 15.5504C3.53178 16.4622 3.67681 17.0848 3.89075 17.6295C4.11069 18.1929 4.40502 18.6704 4.88211 19.1457C5.35919 19.6211 5.83679 19.9131 6.40251 20.1315C6.94765 20.3421 7.57113 20.4858 8.48348 20.5257C9.39582 20.5657 9.68948 20.5749 12.0164 20.5705C14.3434 20.566 14.6364 20.5557 15.5506 20.5124C16.4648 20.469 17.0842 20.3229 17.629 20.11C18.1925 19.8896 18.6703 19.5957 19.1453 19.1185C19.6203 18.6412 19.9128 18.1629 20.1307 17.5983C20.3419 17.0531 20.4854 16.4296 20.525 15.518C20.5649 14.6031 20.5743 14.3109 20.5699 11.9836C20.5654 9.65631 20.555 9.36454 20.5116 8.45049C20.4682 7.53643 20.323 6.91569 20.1092 6.37071C19.889 5.80723 19.595 5.33014 19.118 4.85443C18.6411 4.37871 18.1625 4.08643 17.598 3.86906C17.0525 3.65803 16.4294 3.5142 15.517 3.47477C14.6047 3.43534 14.311 3.42523 11.9832 3.42969C9.65536 3.43414 9.36393 3.44409 8.44971 3.48866ZM8.54982 18.9837C7.71411 18.9474 7.26033 18.8085 6.95793 18.6923C6.55748 18.538 6.27222 18.3515 5.97085 18.0531C5.66948 17.7546 5.48433 17.4683 5.32799 17.0687C5.21056 16.7663 5.06913 16.3131 5.03005 15.4773C4.98753 14.5741 4.97862 14.3029 4.97365 12.0145C4.96868 9.72609 4.97742 9.45523 5.01702 8.55163C5.05268 7.7166 5.19239 7.26231 5.30845 6.96009C5.46273 6.55911 5.64856 6.27437 5.94771 5.97317C6.24685 5.67197 6.53228 5.48649 6.93222 5.33014C7.23428 5.2122 7.68753 5.07197 8.52291 5.0322C9.42685 4.98934 9.69771 4.98077 11.9858 4.9758C14.2738 4.97083 14.5454 4.9794 15.4496 5.01917C16.2847 5.05551 16.7391 5.19386 17.041 5.3106C17.4416 5.46489 17.7267 5.6502 18.0279 5.94986C18.3291 6.24951 18.5148 6.53391 18.6711 6.93471C18.7892 7.23591 18.9295 7.689 18.9689 8.52489C19.0119 9.42883 19.0217 9.69986 19.0258 11.9877C19.0299 14.2756 19.0219 14.5473 18.9823 15.4506C18.9458 16.2863 18.8072 16.7403 18.6908 17.043C18.5366 17.4433 18.3506 17.7287 18.0512 18.0297C17.7519 18.3308 17.4668 18.5163 17.0667 18.6726C16.765 18.7904 16.3112 18.9309 15.4766 18.9707C14.5726 19.0132 14.3018 19.0221 12.0128 19.0271C9.72393 19.0321 9.45376 19.0228 8.54982 18.9837ZM15.5374 7.419C15.5378 7.62244 15.5984 7.82121 15.7118 7.9902C15.8251 8.15914 15.986 8.29071 16.1741 8.36824C16.3622 8.44577 16.569 8.46579 16.7685 8.42571C16.9679 8.38569 17.151 8.28737 17.2946 8.14324C17.4383 7.99916 17.5359 7.81569 17.5752 7.61606C17.6145 7.41643 17.5937 7.20964 17.5155 7.02184C17.4373 6.83404 17.3051 6.67363 17.1358 6.56096C16.9664 6.44824 16.7674 6.38829 16.5639 6.38871C16.2912 6.38927 16.0298 6.49809 15.8374 6.69133C15.6449 6.88453 15.537 7.14626 15.5374 7.419ZM7.59856 12.0087C7.60336 14.4395 9.57753 16.4056 12.0079 16.401C14.4382 16.3964 16.4057 14.4224 16.4011 11.9915C16.3964 9.56066 14.4218 7.59403 11.9911 7.59883C9.56039 7.60363 7.59393 9.57814 7.59856 12.0087ZM9.14245 12.0056C9.14133 11.4405 9.30783 10.8877 9.62086 10.4172C9.93389 9.94676 10.3794 9.57969 10.901 9.3624C11.4227 9.14507 11.9971 9.08739 12.5515 9.19654C13.106 9.30566 13.6156 9.57677 14.016 9.97556C14.4164 10.3744 14.6895 10.8829 14.8008 11.4369C14.9122 11.991 14.8568 12.5656 14.6415 13.0881C14.4263 13.6106 14.061 14.0576 13.5917 14.3724C13.1225 14.6873 12.5704 14.856 12.0053 14.8571C11.6301 14.8579 11.2584 14.7848 10.9114 14.6419C10.5645 14.499 10.2491 14.2892 9.98322 14.0244C9.71738 13.7595 9.50631 13.445 9.36205 13.0986C9.21779 12.7522 9.14318 12.3808 9.14245 12.0056Z" fill="white"/>
</g>
</svg>
