<?xml version="1.0" encoding="UTF-8"?>
<svg width="91px" height="66px" viewBox="0 0 91 66" version="1.1" xmlns="http://www.w3.org/2000/svg" xmlns:xlink="http://www.w3.org/1999/xlink">
    <title>Group 8</title>
    <defs>
        <linearGradient x1="50%" y1="0%" x2="50%" y2="100%" id="linearGradient-1">
            <stop stop-color="#FFFFFF" offset="0%"></stop>
            <stop stop-color="#ECECEC" offset="24.392612%"></stop>
            <stop stop-color="#FFFFFF" offset="42.6368316%"></stop>
            <stop stop-color="#EDEDED" offset="59.7859465%"></stop>
            <stop stop-color="#FFFFFF" offset="83.2234465%"></stop>
            <stop stop-color="#DFDFDF" offset="100%"></stop>
        </linearGradient>
        <rect id="path-2" x="0" y="0" width="59.964539" height="37.3861386" rx="4"></rect>
        <linearGradient x1="0%" y1="50%" x2="100%" y2="50%" id="linearGradient-4">
            <stop stop-color="#DCDDDE" offset="0%"></stop>
            <stop stop-color="#C4C5C7" offset="10%"></stop>
            <stop stop-color="#A9ABAD" offset="25%"></stop>
            <stop stop-color="#999B9E" offset="38%"></stop>
            <stop stop-color="#939598" offset="47%"></stop>
            <stop stop-color="#9A9C9F" offset="54%"></stop>
            <stop stop-color="#ADAEB1" offset="62%"></stop>
            <stop stop-color="#CCCDCF" offset="73%"></stop>
            <stop stop-color="#F7F7F8" offset="85%"></stop>
            <stop stop-color="#FFFFFF" offset="87%"></stop>
            <stop stop-color="#A1A3A6" offset="100%"></stop>
        </linearGradient>
    </defs>
    <g id="Solicitud-en-Línea" stroke="none" stroke-width="1" fill="none" fill-rule="evenodd">
        <g id="LIV-APP-DC-SL-01:-Home-Copy" transform="translate(-253.000000, -120.000000)">
            <g id="Group-8" transform="translate(253.460423, 120.662835)">
                <g id="tarjeta-lp" transform="translate(36.797984, 31.834089) rotate(-26.000000) translate(-36.797984, -31.834089) translate(5.797984, 11.834089)" fill-rule="nonzero">
                    <g id="Tarjeta-Copy-7" transform="translate(0.521464, 0.267151)" fill="#E10098">
                        <path d="M3.35341968,37.8775516 C1.50106445,37.8775516 0,36.5788927 0,34.9763116 L0,2.90124008 C0,1.29865891 1.50106445,0 3.35341968,0 L57.1061208,0 C58.9584759,0 60.4595405,1.29865891 60.4595405,2.90124008 L60.4595405,34.9763116 C60.4595405,36.5788927 58.9584759,37.8775516 57.1061208,37.8775516 L3.35341968,37.8775516 Z" id="XMLID_121_"></path>
                    </g>
                    <g id="Group-3" opacity="0.2" transform="translate(2.431491, 0.416432)" fill="#FFFFFF">
                        <path d="M26.1579001,4.96788231 C26.1579001,4.52767462 26.4846653,4.17391733 26.9151408,4.17391733 L28.0465721,4.17391733 L28.0465721,2.87663052 L26.7056359,2.87663052 C25.685732,2.87663052 24.8800236,3.71779851 24.8800236,4.75361255 L24.8800236,11.0639635 L26.1589424,11.0639635 L26.1579001,4.96788231 Z" id="Fill-20"></path>
                        <polygon id="Fill-22" points="5.65455083 11.0639635 7.46400709 11.0639635 7.46400709 2.87663052 5.65455083 2.87663052"></polygon>
                        <path d="M35.3656587,6.68282567 C35.3656587,8.32438959 33.9725025,9.66121031 32.2573485,9.66121031 C30.5432784,9.66121031 29.1501224,8.32438959 29.1501224,6.68282567 C29.1501224,5.04178089 30.5432784,3.70496017 32.2573485,3.70496017 C33.9725025,3.70496017 35.3656587,5.04178089 35.3656587,6.68282567 Z M42.9185164,6.68282567 C42.9185164,8.32438959 41.5237339,9.66121031 39.80858,9.66121031 C38.0945099,9.66121031 36.6991855,8.32438959 36.6991855,6.68282567 C36.6991855,5.04178089 38.0945099,3.70496017 39.80858,3.70496017 C41.5237339,3.70496017 42.9185164,5.04178089 42.9185164,6.68282567 Z M50.4686636,6.68282567 C50.4686636,8.32438959 49.0749654,9.66121031 47.3608956,9.66121031 C45.6451994,9.66121031 44.2520432,8.32438959 44.2520432,6.68282567 C44.2520432,5.04178089 45.6451994,3.70496017 47.3608956,3.70496017 C49.0749654,3.70496017 50.4686636,5.04178089 50.4686636,6.68282567 Z M27.8203901,13.9405941 L29.1615061,13.9405941 L29.1615061,9.72402789 C29.9599961,10.4705709 31.0517535,10.9310602 32.2573485,10.9310602 C33.8532439,10.9310602 35.252363,10.1237762 36.0329642,8.91310986 C36.8141074,10.1237762 38.2137684,10.9310602 39.80858,10.9310602 C41.4028491,10.9310602 42.8052207,10.1237762 43.5841957,8.91310986 C44.3653389,10.1237762 45.7633737,10.9310602 47.3608956,10.9310602 C49.8105736,10.9310602 51.7956856,9.02940029 51.7956856,6.68282567 C51.7956856,4.33625106 49.8105736,2.43407198 47.3608956,2.43407198 C45.7633737,2.43407198 44.3653389,3.2418751 43.5841957,4.45357979 C42.8052207,3.2418751 41.4028491,2.43407198 39.80858,2.43407198 C38.2137684,2.43407198 36.8141074,3.24239425 36.0329642,4.45357979 C35.252363,3.24239425 33.8532439,2.43407198 32.2573485,2.43407198 C29.8076704,2.43407198 27.8203901,4.33625106 27.8203901,6.68282567 L27.8203901,13.9405941 Z" id="Fill-24"></path>
                        <path d="M22.8054617,6.06005973 L16.7742154,6.06005973 C17.2203087,4.82096412 18.4463843,4.0272554 19.7922896,4.0272554 C21.1376502,4.0272554 22.3588237,4.82096412 22.8054617,6.06005973 Z M24.0751117,7.93968332 L22.7831298,7.93968332 C22.3381259,9.12064103 21.141463,9.91434975 19.7922896,9.91434975 C18.1522569,9.91434975 16.7889218,8.76776924 16.6287858,7.21119016 L24.2014775,7.21119016 L24.2014775,6.97004426 C24.2014775,4.71277708 22.2226536,2.87663052 19.7922896,2.87663052 C17.3597469,2.87663052 15.3803783,4.71277708 15.3803783,6.97004426 C15.3803783,9.22680589 17.3597469,11.0639635 19.7922896,11.0639635 C21.841922,11.0639635 23.5930696,9.78240201 24.0751117,7.93968332 Z" id="Fill-25"></path>
                        <polygon id="Fill-26" points="12.3761566 11.0639635 15.6065603 2.87663052 14.1341779 2.87663052 11.5344946 9.46616425 8.93481134 2.87663052 7.46400709 2.87663052 10.6933587 11.0639635"></polygon>
                        <polygon id="Fill-27" points="52.4742317 10.8426843 54.2836879 10.8426843 54.2836879 6.80017787e-16 52.4742317 6.80017787e-16"></polygon>
                        <path d="M1.29623808,0 L1.29623808,8.81166998 C1.30041613,9.24990579 1.55371003,9.59214708 2.05455303,9.59214708 L5.20218676,9.59214708 L5.20218676,10.8426843 L0.864855063,10.8421626 C0.317531327,10.8421626 0,10.5082686 0,10.0251658 L0,0 L1.29623808,0 Z" id="Fill-28"></path>
                        <polygon id="Fill-30" points="5.65455083 1.77023417 7.46400709 1.77023417 7.46400709 0 5.65455083 0"></polygon>
                    </g>
                    <g id="Group-3-Copy" opacity="0.2" transform="translate(2.266142, 12.320728)" fill="#FFFFFF">
                        <path d="M26.1579001,4.96788231 C26.1579001,4.52767462 26.4846653,4.17391733 26.9151408,4.17391733 L28.0465721,4.17391733 L28.0465721,2.87663052 L26.7056359,2.87663052 C25.685732,2.87663052 24.8800236,3.71779851 24.8800236,4.75361255 L24.8800236,11.0639635 L26.1589424,11.0639635 L26.1579001,4.96788231 Z" id="Fill-20"></path>
                        <polygon id="Fill-22" points="5.65455083 11.0639635 7.46400709 11.0639635 7.46400709 2.87663052 5.65455083 2.87663052"></polygon>
                        <path d="M35.3656587,6.68282567 C35.3656587,8.32438959 33.9725025,9.66121031 32.2573485,9.66121031 C30.5432784,9.66121031 29.1501224,8.32438959 29.1501224,6.68282567 C29.1501224,5.04178089 30.5432784,3.70496017 32.2573485,3.70496017 C33.9725025,3.70496017 35.3656587,5.04178089 35.3656587,6.68282567 Z M42.9185164,6.68282567 C42.9185164,8.32438959 41.5237339,9.66121031 39.80858,9.66121031 C38.0945099,9.66121031 36.6991855,8.32438959 36.6991855,6.68282567 C36.6991855,5.04178089 38.0945099,3.70496017 39.80858,3.70496017 C41.5237339,3.70496017 42.9185164,5.04178089 42.9185164,6.68282567 Z M50.4686636,6.68282567 C50.4686636,8.32438959 49.0749654,9.66121031 47.3608956,9.66121031 C45.6451994,9.66121031 44.2520432,8.32438959 44.2520432,6.68282567 C44.2520432,5.04178089 45.6451994,3.70496017 47.3608956,3.70496017 C49.0749654,3.70496017 50.4686636,5.04178089 50.4686636,6.68282567 Z M27.8203901,13.9405941 L29.1615061,13.9405941 L29.1615061,9.72402789 C29.9599961,10.4705709 31.0517535,10.9310602 32.2573485,10.9310602 C33.8532439,10.9310602 35.252363,10.1237762 36.0329642,8.91310986 C36.8141074,10.1237762 38.2137684,10.9310602 39.80858,10.9310602 C41.4028491,10.9310602 42.8052207,10.1237762 43.5841957,8.91310986 C44.3653389,10.1237762 45.7633737,10.9310602 47.3608956,10.9310602 C49.8105736,10.9310602 51.7956856,9.02940029 51.7956856,6.68282567 C51.7956856,4.33625106 49.8105736,2.43407198 47.3608956,2.43407198 C45.7633737,2.43407198 44.3653389,3.2418751 43.5841957,4.45357979 C42.8052207,3.2418751 41.4028491,2.43407198 39.80858,2.43407198 C38.2137684,2.43407198 36.8141074,3.24239425 36.0329642,4.45357979 C35.252363,3.24239425 33.8532439,2.43407198 32.2573485,2.43407198 C29.8076704,2.43407198 27.8203901,4.33625106 27.8203901,6.68282567 L27.8203901,13.9405941 Z" id="Fill-24"></path>
                        <path d="M22.8054617,6.06005973 L16.7742154,6.06005973 C17.2203087,4.82096412 18.4463843,4.0272554 19.7922896,4.0272554 C21.1376502,4.0272554 22.3588237,4.82096412 22.8054617,6.06005973 Z M24.0751117,7.93968332 L22.7831298,7.93968332 C22.3381259,9.12064103 21.141463,9.91434975 19.7922896,9.91434975 C18.1522569,9.91434975 16.7889218,8.76776924 16.6287858,7.21119016 L24.2014775,7.21119016 L24.2014775,6.97004426 C24.2014775,4.71277708 22.2226536,2.87663052 19.7922896,2.87663052 C17.3597469,2.87663052 15.3803783,4.71277708 15.3803783,6.97004426 C15.3803783,9.22680589 17.3597469,11.0639635 19.7922896,11.0639635 C21.841922,11.0639635 23.5930696,9.78240201 24.0751117,7.93968332 Z" id="Fill-25"></path>
                        <polygon id="Fill-26" points="12.3761566 11.0639635 15.6065603 2.87663052 14.1341779 2.87663052 11.5344946 9.46616425 8.93481134 2.87663052 7.46400709 2.87663052 10.6933587 11.0639635"></polygon>
                        <polygon id="Fill-27" points="52.4742317 10.8426843 54.2836879 10.8426843 54.2836879 6.80017787e-16 52.4742317 6.80017787e-16"></polygon>
                        <path d="M1.29623808,0 L1.29623808,8.81166998 C1.30041613,9.24990579 1.55371003,9.59214708 2.05455303,9.59214708 L5.20218676,9.59214708 L5.20218676,10.8426843 L0.864855063,10.8421626 C0.317531327,10.8421626 0,10.5082686 0,10.0251658 L0,0 L1.29623808,0 Z" id="Fill-28"></path>
                        <polygon id="Fill-30" points="5.65455083 1.77023417 7.46400709 1.77023417 7.46400709 0 5.65455083 0"></polygon>
                    </g>
                    <g id="Group-3-Copy-2" opacity="0.2" transform="translate(2.391415, 25.072337)" fill="#FFFFFF">
                        <path d="M26.1579001,4.96788231 C26.1579001,4.52767462 26.4846653,4.17391733 26.9151408,4.17391733 L28.0465721,4.17391733 L28.0465721,2.87663052 L26.7056359,2.87663052 C25.685732,2.87663052 24.8800236,3.71779851 24.8800236,4.75361255 L24.8800236,11.0639635 L26.1589424,11.0639635 L26.1579001,4.96788231 Z" id="Fill-20"></path>
                        <polygon id="Fill-22" points="5.65455083 11.0639635 7.46400709 11.0639635 7.46400709 2.87663052 5.65455083 2.87663052"></polygon>
                        <path d="M35.3656587,6.68282567 C35.3656587,8.32438959 33.9725025,9.66121031 32.2573485,9.66121031 C30.5432784,9.66121031 29.1501224,8.32438959 29.1501224,6.68282567 C29.1501224,5.04178089 30.5432784,3.70496017 32.2573485,3.70496017 C33.9725025,3.70496017 35.3656587,5.04178089 35.3656587,6.68282567 Z M42.9185164,6.68282567 C42.9185164,8.32438959 41.5237339,9.66121031 39.80858,9.66121031 C38.0945099,9.66121031 36.6991855,8.32438959 36.6991855,6.68282567 C36.6991855,5.04178089 38.0945099,3.70496017 39.80858,3.70496017 C41.5237339,3.70496017 42.9185164,5.04178089 42.9185164,6.68282567 Z M50.4686636,6.68282567 C50.4686636,8.32438959 49.0749654,9.66121031 47.3608956,9.66121031 C45.6451994,9.66121031 44.2520432,8.32438959 44.2520432,6.68282567 C44.2520432,5.04178089 45.6451994,3.70496017 47.3608956,3.70496017 C49.0749654,3.70496017 50.4686636,5.04178089 50.4686636,6.68282567 Z M27.8203901,13.9405941 L29.1615061,13.9405941 L29.1615061,9.72402789 C29.9599961,10.4705709 31.0517535,10.9310602 32.2573485,10.9310602 C33.8532439,10.9310602 35.252363,10.1237762 36.0329642,8.91310986 C36.8141074,10.1237762 38.2137684,10.9310602 39.80858,10.9310602 C41.4028491,10.9310602 42.8052207,10.1237762 43.5841957,8.91310986 C44.3653389,10.1237762 45.7633737,10.9310602 47.3608956,10.9310602 C49.8105736,10.9310602 51.7956856,9.02940029 51.7956856,6.68282567 C51.7956856,4.33625106 49.8105736,2.43407198 47.3608956,2.43407198 C45.7633737,2.43407198 44.3653389,3.2418751 43.5841957,4.45357979 C42.8052207,3.2418751 41.4028491,2.43407198 39.80858,2.43407198 C38.2137684,2.43407198 36.8141074,3.24239425 36.0329642,4.45357979 C35.252363,3.24239425 33.8532439,2.43407198 32.2573485,2.43407198 C29.8076704,2.43407198 27.8203901,4.33625106 27.8203901,6.68282567 L27.8203901,13.9405941 Z" id="Fill-24"></path>
                        <path d="M22.8054617,6.06005973 L16.7742154,6.06005973 C17.2203087,4.82096412 18.4463843,4.0272554 19.7922896,4.0272554 C21.1376502,4.0272554 22.3588237,4.82096412 22.8054617,6.06005973 Z M24.0751117,7.93968332 L22.7831298,7.93968332 C22.3381259,9.12064103 21.141463,9.91434975 19.7922896,9.91434975 C18.1522569,9.91434975 16.7889218,8.76776924 16.6287858,7.21119016 L24.2014775,7.21119016 L24.2014775,6.97004426 C24.2014775,4.71277708 22.2226536,2.87663052 19.7922896,2.87663052 C17.3597469,2.87663052 15.3803783,4.71277708 15.3803783,6.97004426 C15.3803783,9.22680589 17.3597469,11.0639635 19.7922896,11.0639635 C21.841922,11.0639635 23.5930696,9.78240201 24.0751117,7.93968332 Z" id="Fill-25"></path>
                        <polygon id="Fill-26" points="12.3761566 11.0639635 15.6065603 2.87663052 14.1341779 2.87663052 11.5344946 9.46616425 8.93481134 2.87663052 7.46400709 2.87663052 10.6933587 11.0639635"></polygon>
                        <polygon id="Fill-27" points="52.4742317 10.8426843 54.2836879 10.8426843 54.2836879 6.80017787e-16 52.4742317 6.80017787e-16"></polygon>
                        <path d="M1.29623808,0 L1.29623808,8.81166998 C1.30041613,9.24990579 1.55371003,9.59214708 2.05455303,9.59214708 L5.20218676,9.59214708 L5.20218676,10.8426843 L0.864855063,10.8421626 C0.317531327,10.8421626 0,10.5082686 0,10.0251658 L0,0 L1.29623808,0 Z" id="Fill-28"></path>
                        <polygon id="Fill-30" points="5.65455083 1.77023417 7.46400709 1.77023417 7.46400709 0 5.65455083 0"></polygon>
                    </g>
                    <rect id="Rectangle-11-Copy" fill="url(#linearGradient-1)" x="45.0832103" y="26.2903895" width="12.6241135" height="8.23762376" rx="4.11881188"></rect>
                    <g id="Group-27-Copy-2" transform="translate(47.522976, 28.561237)" fill="#FFFFFF">
                        <path d="M2.05715497,2.09236968 L1.23115082,2.09236968 C1.13935928,2.09236968 1.10967962,2.03710273 1.10967962,1.96165336 C1.10967962,1.90051942 1.10920091,0.0397479338 1.10920091,0.0397479338 L0.818866797,0.0397479338 L0.818866797,2.22379005 C0.818866797,2.31543228 0.899767813,2.37597951 0.95936649,2.37597951 L2.05715497,2.37597951 L2.05715497,2.09236968 Z" id="Fill-1"></path>
                        <path d="M2.05715497,2.48415489 L2.05715497,2.76835143 L0.590644555,2.76835143 C0.490236342,2.76835143 0.420704553,2.69477948 0.420704553,2.59961708 C0.421661962,2.48790977 0.420704553,0.0396188604 0.420704553,0.0396188604 L0.709841908,0.0396188604 L0.709841908,2.30755878 C0.709841908,2.40706277 0.754002375,2.48415489 0.877867093,2.48415489 L2.05715497,2.48415489 Z" id="Fill-3"></path>
                        <path d="M0.0199094348,0.039665796 L0.310722256,0.039665796 L0.310722256,2.67957228 C0.310722256,2.77520406 0.359430411,2.87623346 0.501725243,2.87623346 L2.05715497,2.87623346 L2.05715497,3.15972594 L0.365414215,3.15972594 C0.172376733,3.15972594 0.0199094348,3.00296024 0.0199094348,2.8159209 L0.0199094348,0.039665796 Z" id="Fill-6"></path>
                        <path d="M1.21802235,0.039665796 L1.5087155,0.039665796 L1.5087155,1.58983935 C1.5087155,1.64616236 1.53480488,1.70002124 1.61750104,1.70002124 L2.05719087,1.70002124 L2.05719087,1.98445244 L1.36570261,1.98445244 C1.25931059,1.98445244 1.21802235,1.91827291 1.21802235,1.8427062 L1.21802235,0.039665796 Z" id="Fill-9"></path>
                        <path d="M1.61882944,1.107069 L2.44471391,1.107069 C2.53662512,1.107069 2.56630479,1.1624533 2.56630479,1.23790266 C2.56630479,1.29880192 2.56666382,3.1595734 2.56666382,3.1595734 L2.85699793,3.1595734 L2.85699793,0.97564864 C2.85699793,0.884123746 2.77609691,0.82345917 2.71649824,0.82345917 L1.61870976,0.82345917 L1.61882944,1.107069 Z" id="Fill-11"></path>
                        <path d="M1.61864992,0.715283785 L1.61864992,0.431087257 L3.08528002,0.431087257 C3.18556855,0.431087257 3.25522001,0.504659192 3.25522001,0.599821613 C3.25414294,0.711411578 3.25522001,3.15970247 3.25522001,3.15970247 L2.96608267,3.15970247 L2.96608267,0.891879895 C2.96608267,0.792258568 2.92180253,0.715283785 2.79817716,0.715283785 L1.61864992,0.715283785 Z" id="Fill-13"></path>
                        <path d="M3.65589546,3.15971422 L3.36520232,3.15971422 L3.36520232,0.519807734 C3.36520232,0.424293293 3.31637449,0.323263892 3.17407966,0.323263892 L1.61864992,0.323263892 L1.61864992,0.039654062 L3.31063003,0.039654062 C3.50354783,0.039654062 3.65589546,0.196654456 3.65589546,0.383576451 L3.65589546,3.15971422 Z" id="Fill-15"></path>
                        <path d="M2.45796205,3.15971422 L2.16714924,3.15971422 L2.16714924,1.60977535 C2.16714924,1.55333499 2.14094017,1.49947611 2.05848337,1.49947611 L1.61879354,1.49947611 L1.61879354,1.21492757 L2.31004244,1.21492757 C2.41643446,1.21492757 2.45796205,1.28134178 2.45796205,1.35679115 L2.45796205,3.15971422 Z" id="Fill-18"></path>
                    </g>
                    <g id="Group-27-Copy-3" transform="translate(53.998484, 26.796745)" fill="#FFFFFF">
                        <path d="M2.05715497,2.09236968 L1.23115082,2.09236968 C1.13935928,2.09236968 1.10967962,2.03710273 1.10967962,1.96165336 C1.10967962,1.90051942 1.10920091,0.0397479338 1.10920091,0.0397479338 L0.818866797,0.0397479338 L0.818866797,2.22379005 C0.818866797,2.31543228 0.899767813,2.37597951 0.95936649,2.37597951 L2.05715497,2.37597951 L2.05715497,2.09236968 Z" id="Fill-1"></path>
                        <path d="M2.05715497,2.48415489 L2.05715497,2.76835143 L0.590644555,2.76835143 C0.490236342,2.76835143 0.420704553,2.69477948 0.420704553,2.59961708 C0.421661962,2.48790977 0.420704553,0.0396188604 0.420704553,0.0396188604 L0.709841908,0.0396188604 L0.709841908,2.30755878 C0.709841908,2.40706277 0.754002375,2.48415489 0.877867093,2.48415489 L2.05715497,2.48415489 Z" id="Fill-3"></path>
                        <path d="M0.0199094348,0.039665796 L0.310722256,0.039665796 L0.310722256,2.67957228 C0.310722256,2.77520406 0.359430411,2.87623346 0.501725243,2.87623346 L2.05715497,2.87623346 L2.05715497,3.15972594 L0.365414215,3.15972594 C0.172376733,3.15972594 0.0199094348,3.00296024 0.0199094348,2.8159209 L0.0199094348,0.039665796 Z" id="Fill-6"></path>
                        <path d="M1.21802235,0.039665796 L1.5087155,0.039665796 L1.5087155,1.58983935 C1.5087155,1.64616236 1.53480488,1.70002124 1.61750104,1.70002124 L2.05719087,1.70002124 L2.05719087,1.98445244 L1.36570261,1.98445244 C1.25931059,1.98445244 1.21802235,1.91827291 1.21802235,1.8427062 L1.21802235,0.039665796 Z" id="Fill-9"></path>
                        <path d="M1.61882944,1.107069 L2.44471391,1.107069 C2.53662512,1.107069 2.56630479,1.1624533 2.56630479,1.23790266 C2.56630479,1.29880192 2.56666382,3.1595734 2.56666382,3.1595734 L2.85699793,3.1595734 L2.85699793,0.97564864 C2.85699793,0.884123746 2.77609691,0.82345917 2.71649824,0.82345917 L1.61870976,0.82345917 L1.61882944,1.107069 Z" id="Fill-11"></path>
                        <path d="M1.61864992,0.715283785 L1.61864992,0.431087257 L3.08528002,0.431087257 C3.18556855,0.431087257 3.25522001,0.504659192 3.25522001,0.599821613 C3.25414294,0.711411578 3.25522001,3.15970247 3.25522001,3.15970247 L2.96608267,3.15970247 L2.96608267,0.891879895 C2.96608267,0.792258568 2.92180253,0.715283785 2.79817716,0.715283785 L1.61864992,0.715283785 Z" id="Fill-13"></path>
                        <path d="M3.65589546,3.15971422 L3.36520232,3.15971422 L3.36520232,0.519807734 C3.36520232,0.424293293 3.31637449,0.323263892 3.17407966,0.323263892 L1.61864992,0.323263892 L1.61864992,0.039654062 L3.31063003,0.039654062 C3.50354783,0.039654062 3.65589546,0.196654456 3.65589546,0.383576451 L3.65589546,3.15971422 Z" id="Fill-15"></path>
                        <path d="M2.45796205,3.15971422 L2.16714924,3.15971422 L2.16714924,1.60977535 C2.16714924,1.55333499 2.14094017,1.49947611 2.05848337,1.49947611 L1.61879354,1.49947611 L1.61879354,1.21492757 L2.31004244,1.21492757 C2.41643446,1.21492757 2.45796205,1.28134178 2.45796205,1.35679115 L2.45796205,3.15971422 Z" id="Fill-18"></path>
                    </g>
                    <g id="Group-31" transform="translate(31.339425, 4.142809)" fill="#FFFFFF">
                        <g id="Group-27">
                            <path d="M2.85826612,2.67823319 L1.71059387,2.67823319 C1.58305625,2.67823319 1.54181854,2.6074915 1.54181854,2.51091629 C1.54181854,2.43266487 1.54115341,0.0508773552 1.54115341,0.0508773552 L1.13775543,0.0508773552 L1.13775543,2.84645125 C1.13775543,2.9637533 1.25016146,3.04125378 1.33296946,3.04125378 L2.85826612,3.04125378 L2.85826612,2.67823319 Z" id="Fill-1"></path>
                            <path d="M2.85826612,3.17971827 L2.85826612,3.54348983 L0.820657341,3.54348983 C0.681147485,3.54348983 0.584538157,3.44931774 0.584538157,3.32750984 C0.585868405,3.1845245 0.584538157,0.0507121411 0.584538157,0.0507121411 L0.986273333,0.0507121411 L0.986273333,2.95367524 C0.986273333,3.08104036 1.04763106,3.17971827 1.21973202,3.17971827 L2.85826612,3.17971827 Z" id="Fill-3"></path>
                            <path d="M0.0276627011,0.050772219 L0.431725811,0.050772219 L0.431725811,3.42985251 C0.431725811,3.55226119 0.499402227,3.68157883 0.697110472,3.68157883 L2.85826612,3.68157883 L2.85826612,4.04444922 L0.507716281,4.04444922 C0.239504842,4.04444922 0.0276627011,3.8437891 0.0276627011,3.60437876 L0.0276627011,0.050772219 Z" id="Fill-6"></path>
                            <path d="M1.69235283,0.050772219 L2.09624966,0.050772219 L2.09624966,2.03499437 C2.09624966,2.10708782 2.13249895,2.17602719 2.2473992,2.17602719 L2.85831602,2.17602719 L2.85831602,2.54009914 L1.89754373,2.54009914 C1.74971982,2.54009914 1.69235283,2.45538932 1.69235283,2.35866394 L1.69235283,0.050772219 Z" id="Fill-9"></path>
                            <path d="M2.24924492,1.41704832 L3.3967509,1.41704832 C3.52445478,1.41704832 3.56569251,1.48794022 3.56569251,1.58451541 C3.56569251,1.66246646 3.56619135,4.04425395 3.56619135,4.04425395 L3.96958933,4.04425395 L3.96958933,1.24883026 C3.96958933,1.1316784 3.8571833,1.05402774 3.7743753,1.05402774 L2.24907864,1.05402774 L2.24924492,1.41704832 Z" id="Fill-11"></path>
                            <path d="M2.2489955,0.915563246 L2.2489955,0.551791689 L4.28677056,0.551791689 C4.42611415,0.551791689 4.52288975,0.645963764 4.52288975,0.767771664 C4.52139322,0.910606821 4.52288975,4.04441917 4.52288975,4.04441917 L4.12115457,4.04441917 L4.12115457,1.14160626 C4.12115457,1.01409097 4.05963057,0.915563246 3.88786217,0.915563246 L2.2489955,0.915563246 Z" id="Fill-13"></path>
                            <path d="M5.07959893,4.0444342 L4.67570209,4.0444342 L4.67570209,0.665353899 C4.67570209,0.543095417 4.60785939,0.413777782 4.41015116,0.413777782 L2.2489955,0.413777782 L2.2489955,0.0507571995 L4.59987791,0.0507571995 C4.86792306,0.0507571995 5.07959893,0.251717705 5.07959893,0.490977856 L5.07959893,4.0444342 Z" id="Fill-15"></path>
                            <path d="M3.41515822,4.0444342 L3.01109509,4.0444342 L3.01109509,2.06051245 C3.01109509,1.98826879 2.97467954,1.91932943 2.86011184,1.91932943 L2.24919504,1.91932943 L2.24919504,1.55510729 L3.20963476,1.55510729 C3.35745866,1.55510729 3.41515822,1.64011748 3.41515822,1.73669268 L3.41515822,4.0444342 Z" id="Fill-18"></path>
                        </g>
                        <path d="M15.1323895,2.24369619 C15.1323895,2.11286689 15.2455165,2.00773058 15.3945482,2.00773058 L15.7862528,2.00773058 L15.7862528,1.62217822 L15.3220171,1.62217822 C14.9689236,1.62217822 14.6899852,1.87217252 14.6899852,2.18001544 L14.6899852,4.05544554 L15.1327503,4.05544554 L15.1323895,2.24369619 Z" id="Fill-20"></path>
                        <polygon id="Fill-22" points="8.55088693 4.05544554 8.98939395 4.05544554 8.98939395 1.62217822 8.55088693 1.62217822"></polygon>
                        <polygon id="Fill-22" points="8.55088693 1.21663366 8.98939395 1.21663366 8.98939395 0.811089109 8.55088693 0.811089109"></polygon>
                        <path d="M18.2012984,2.89502163 C18.2012984,3.38680203 17.7553851,3.78728736 17.2064086,3.78728736 C16.6577791,3.78728736 16.2118658,3.38680203 16.2118658,2.89502163 C16.2118658,2.40339674 16.6577791,2.00291144 17.2064086,2.00291144 C17.7553851,2.00291144 18.2012984,2.40339674 18.2012984,2.89502163 Z M20.6187731,2.89502163 C20.6187731,3.38680203 20.1723393,3.78728736 19.6233628,3.78728736 C19.0747332,3.78728736 18.6281259,3.38680203 18.6281259,2.89502163 C18.6281259,2.40339674 19.0747332,2.00291144 19.6233628,2.00291144 C20.1723393,2.00291144 20.6187731,2.40339674 20.6187731,2.89502163 Z M23.0353803,2.89502163 C23.0353803,3.38680203 22.5892935,3.78728736 22.040664,3.78728736 C21.4915139,3.78728736 21.0456006,3.38680203 21.0456006,2.89502163 C21.0456006,2.40339674 21.4915139,2.00291144 22.040664,2.00291144 C22.5892935,2.00291144 23.0353803,2.40339674 23.0353803,2.89502163 Z M15.7862528,5.06930693 L16.2155094,5.06930693 L16.2155094,3.80610627 C16.4710854,4.02975594 16.8205287,4.16770952 17.2064086,4.16770952 C17.7172135,4.16770952 18.1650354,3.92586305 18.4148857,3.56317111 C18.6649094,3.92586305 19.1129048,4.16770952 19.6233628,4.16770952 C20.1336472,4.16770952 20.5825101,3.92586305 20.8318398,3.56317111 C21.0818636,3.92586305 21.5293385,4.16770952 22.040664,4.16770952 C22.8247426,4.16770952 23.4601257,3.59800944 23.4601257,2.89502163 C23.4601257,2.19203381 22.8247426,1.62217822 22.040664,1.62217822 C21.5293385,1.62217822 21.0818636,1.86418021 20.8318398,2.22718321 C20.5825101,1.86418021 20.1336472,1.62217822 19.6233628,1.62217822 C19.1129048,1.62217822 18.6649094,1.86433574 18.4148857,2.22718321 C18.1650354,1.86433574 17.7172135,1.62217822 17.2064086,1.62217822 C16.4223299,1.62217822 15.7862528,2.19203381 15.7862528,2.89502163 L15.7862528,5.06930693 Z" id="Fill-24"></path>
                        <path d="M14.0196476,2.44436063 L12.0708162,2.44436063 C12.214959,2.04541449 12.6111316,1.78986757 13.0460239,1.78986757 C13.4807402,1.78986757 13.8753288,2.04541449 14.0196476,2.44436063 Z M14.4299001,3.04953478 L14.0124316,3.04953478 C13.8686409,3.42976254 13.4819722,3.68530945 13.0460239,3.68530945 C12.5160924,3.68530945 12.0755682,3.31614997 12.0238246,2.81498504 L14.4707317,2.81498504 L14.4707317,2.73734435 C14.4707317,2.01058197 13.8313292,1.41940594 13.0460239,1.41940594 C12.2600146,1.41940594 11.6204361,2.01058197 11.6204361,2.73734435 C11.6204361,3.46394397 12.2600146,4.05544554 13.0460239,4.05544554 C13.7083062,4.05544554 14.2741414,3.64282681 14.4299001,3.04953478 Z" id="Fill-25"></path>
                        <polygon id="Fill-26" points="10.7958735 4.05544554 11.8396896 1.62217822 11.3639297 1.62217822 10.5239136 3.58058116 9.68389741 1.62217822 9.20864746 1.62217822 10.2521236 4.05544554"></polygon>
                        <polygon id="Fill-27" points="23.6793792 4.05544554 24.1178862 4.05544554 24.1178862 0.811089109 23.6793792 0.811089109"></polygon>
                        <path d="M7.01465962,0.811089109 L7.01465962,3.44772387 C7.01606833,3.57885313 7.10147176,3.68125883 7.27034164,3.68125883 L8.33163342,3.68125883 L8.33163342,4.05544554 L6.86920963,4.05528943 C6.68466779,4.05528943 6.57760533,3.95538144 6.57760533,3.81082703 L6.57760533,0.811089109 L7.01465962,0.811089109 Z" id="Fill-28"></path>
                        <path d="M25.0486582,1.28415413 C25.1161086,1.28415413 25.1600442,1.25845753 25.1600442,1.20272998 C25.1600442,1.15350397 25.1201309,1.12254422 25.0641282,1.12254422 L24.9236582,1.12254422 L24.9236582,1.28415413 L25.0486582,1.28415413 Z M24.8367149,1.0494792 L25.0734106,1.0494792 C25.2070739,1.0494792 25.2513189,1.13245134 25.2513189,1.18972688 C25.2513189,1.27734298 25.1900566,1.33988168 25.0997099,1.34483524 L25.0997099,1.34855041 C25.1455022,1.36403029 25.1789179,1.41046991 25.2231629,1.48198694 L25.2887572,1.58663091 L25.1838686,1.58663091 L25.1356012,1.50272998 C25.0675319,1.38229654 25.0421606,1.35845753 24.9765666,1.35845753 L24.9236582,1.35845753 L24.9236582,1.58663091 L24.8367149,1.58663091 L24.8367149,1.0494792 Z M24.6402422,1.30985072 C24.6402422,1.54019128 24.8255766,1.72780738 25.0554649,1.72780738 C25.2856629,1.72780738 25.4734726,1.54019128 25.4734726,1.30985072 C25.4734726,1.07889097 25.2856629,0.893132452 25.0554649,0.893132452 C24.8255766,0.893132452 24.6402422,1.07889097 24.6402422,1.30985072 Z M24.5563932,1.30985072 C24.5563932,1.03276094 24.7797842,0.811089109 25.0554649,0.811089109 C25.3323832,0.811089109 25.5563932,1.03276094 25.5563932,1.30985072 C25.5563932,1.58663091 25.3323832,1.81108911 25.0554649,1.81108911 C24.7797842,1.81108911 24.5563932,1.58663091 24.5563932,1.30985072 Z" id="Fill-29"></path>
                    </g>
                </g>
                <g id="LPC-GRIS-FRENTE" transform="translate(56.273045, 40.116798) rotate(-10.000000) translate(-56.273045, -40.116798) translate(26.273045, 21.116798)">
                    <mask id="mask-3" fill="white">
                        <use xlink:href="#path-2"></use>
                    </mask>
                    <use id="Rectangle" fill="#434345" fill-rule="nonzero" xlink:href="#path-2"></use>
                    <g id="Group-22" mask="url(#mask-3)">
                        <g transform="translate(-0.631206, -0.633663)">
                            <path d="M51.9962681,11.6939855 L52.867856,12.5621716 C53.2552283,12.9480321 53.8604977,13.1626671 54.4270298,12.5983461 L60.6201457,6.42940095 L61.5571026,7.36511272 L61.5571026,6.49210329 L57.1168467,2.07158868 L57.1168467,2.07158868 L55.906308,0.865774547 C55.8013321,0.731102735 55.6408576,0.650927387 55.4697202,0.647649128 C55.2985828,0.644370869 55.1351322,0.7183412 55.0250359,0.848893149 L53.2745969,2.59491201 L52.119743,1.44456533 L53.4731253,0.0940535023 L52.5966953,0.0940535023 L51.681528,1.00806061 L50.7590976,0.0868186175 L49.8875097,0.0868186175 L51.9962681,2.18975846 L51.9962681,2.18975846 L53.2068068,3.3955726 C53.3107707,3.53098334 53.4710391,3.61179454 53.6421462,3.61508124 C53.8132533,3.61836795 53.9765303,3.54377157 54.0856579,3.41245399 L55.8385179,1.66884676 L56.9933718,2.81678181 L54.245449,5.5636264 C54.1046212,5.73917586 53.8921927,5.84257878 53.6666177,5.84538162 C53.4410426,5.84818447 53.2260908,5.75009189 53.0809108,5.57809617 L47.5681176,0.0868186175 L46.7013719,0.0868186175 L53.1317534,6.49210329 C53.4392302,6.79838008 53.7806021,6.90208009 54.1461848,6.53792422 L57.4364289,3.26052141 L58.5888618,4.40845647 L54.216396,8.76868037 C53.8674796,9.05450434 53.3573841,9.02836727 53.0397524,8.70838966 L44.389243,0.0868186175 L43.5273395,0.0868186175 L52.0011103,8.52751754 L52.0011103,8.52751754 L52.9477515,9.47046419 C53.3520714,9.87320611 53.8411291,10.0106689 54.3350288,9.51869676 L59.0319189,4.84254955 L60.1891939,5.99289624 L54.3422921,11.8097436 C54.1656989,11.996521 53.9195443,12.1024158 53.6619693,12.1024158 C53.4043944,12.1024158 53.1582398,11.996521 52.9816466,11.8097436 L51.9962681,10.8257993 L51.9962681,10.8257993 C48.7108661,7.55321972 44.0067128,2.86742601 41.2127895,0.0844069892 L40.3484649,0.0844069892 L51.9962681,11.6891622 L51.9962681,11.6939855 Z" id="Path" stroke="none" fill="none"></path>
                            <path d="M2.3908139,34.8142656 L1.44417265,33.871319 C1.04227381,33.468577 0.555637256,33.3311142 0.0617374729,33.8182631 L0.0617374729,34.6912726 L0.170685954,34.5827493 C0.52076705,34.2977527 1.03080767,34.3238332 1.34975063,34.64304 L6.44127634,39.7315756 L7.30317988,39.7315756 L2.3908139,34.831147 L2.3908139,34.8142656 Z" id="Path" stroke="none" fill="none"></path>
                            <path d="M0.243318276,36.8183287 L0.0617374729,36.9967892 L0.0617374729,37.8697986 L0.144054103,37.7902149 C0.284774724,37.6150483 0.497029484,37.51209 0.722242798,37.5097532 C0.947456112,37.5074164 1.16181795,37.6059481 1.30617124,37.7781568 L3.26966499,39.7315756 L4.13398961,39.7315756 L1.25532862,36.8641496 C0.950272867,36.5602845 0.606479881,36.4541728 0.243318276,36.8183287 Z" id="Path" stroke="none" fill="none"></path>
                            <path d="M17.3361245,36.8183287 L14.4138841,39.7315756 L15.2903141,39.7315756 L17.227176,37.802273 C17.3683701,37.6270256 17.5810076,37.5240696 17.8065804,37.5217339 C18.0321532,37.5193982 18.2468934,37.617929 18.3917142,37.7902149 L20.3527869,39.7436338 L21.2171115,39.7436338 L18.352977,36.8641496 C18.0455002,36.5602845 17.7041283,36.4541728 17.3361245,36.8183287 Z" id="Path" stroke="none" fill="none"></path>
                            <path d="M51.5314212,36.8183287 L48.6067598,39.7315756 L49.4831898,39.7315756 L51.4321571,37.802273 C51.5733512,37.6270256 51.7859887,37.5240696 52.0115615,37.5217339 C52.2371342,37.5193982 52.4518744,37.617929 52.5966953,37.7902149 L54.557768,39.7436338 L55.4220926,39.7436338 L52.5458527,36.8641496 C52.2383758,36.5602845 51.8945828,36.4541728 51.5314212,36.8183287 Z" id="Path" stroke="none" fill="none"></path>
                            <path d="M34.4337729,36.8183287 L31.5115325,39.7315756 L32.3879625,39.7315756 L34.3369298,37.802273 C34.4776504,37.6271065 34.6899052,37.5241481 34.9151185,37.5218113 C35.1403318,37.5194745 35.3546936,37.6180062 35.4990469,37.7902149 L37.4601196,39.7436338 L38.3268653,39.7436338 L35.4482043,36.8641496 C35.1407275,36.5602845 34.7993556,36.4541728 34.4337729,36.8183287 Z" id="Path" stroke="none" fill="none"></path>
                            <path d="M2.3908139,31.6598558 L1.52164713,30.7916697 C1.15606444,30.4299254 0.599216649,30.2177021 0.069000705,30.6638534 L0.069000705,31.5320396 C0.24776615,31.3520547 0.49256733,31.2525942 0.746711097,31.256692 C1.00085486,31.2607898 1.24229608,31.3680904 1.41511972,31.5537442 L2.39807713,32.5352769 L2.39807713,32.5352769 C4.51651983,34.6454516 7.22570541,37.341652 9.62983523,39.7388105 L10.4965809,39.7388105 L2.3908139,31.6646791 L2.3908139,31.6598558 Z" id="Path" stroke="none" fill="none"></path>
                            <polygon id="Path" stroke="none" fill="none" points="61.5571026 3.32081212 58.3080168 0.0868186175 57.4436922 0.0868186175 61.5595237 4.18658667"></polygon>
                            <polygon id="Path" stroke="none" fill="none" points="61.5571026 0.156755837 61.4844703 0.0844069892 60.6225668 0.0844069892 61.5571026 1.0152955"></polygon>
                            <path d="M0.70816513,2.19217009 L1.91870381,3.39798422 C2.02367972,3.53265604 2.1841543,3.61283138 2.3552917,3.61610964 C2.52642909,3.6193879 2.68987963,3.54541757 2.79997598,3.41486562 L4.55283599,1.67125839 L5.71495313,2.82160507 L2.95734601,5.5636264 C2.81651828,5.73917586 2.60408975,5.84257878 2.37851469,5.84538162 C2.15293962,5.84818447 1.93798778,5.75009189 1.79280779,5.57809617 L0.0617374729,3.85378197 L0.0617374729,4.71473326 L1.84122934,6.48969166 C2.14870616,6.79596845 2.49007807,6.89966846 2.85566076,6.5355126 L6.14832598,3.25810978 L7.3007588,4.40604484 L2.92829308,8.76868037 C2.57937667,9.05450434 2.06928115,9.02836727 1.75164948,8.70838966 L0.0568953182,7.02024988 L0.0568953182,7.87878954 L0.70816513,8.52751754 L0.70816513,8.52751754 L1.65480638,9.47046419 C2.0591263,9.87320611 2.54818393,10.0106689 3.04208371,9.51869676 L7.73897381,4.84254955 L8.89140663,5.99048461 L3.05176802,11.8097436 C2.87517485,11.996521 2.62902025,12.1024158 2.37144528,12.1024158 C2.11387031,12.1024158 1.86771572,11.996521 1.69112254,11.8097436 L0.70816513,10.8185644 L0.70816513,10.8185644 C0.499952477,10.6087527 0.282055513,10.3941178 0.0617374729,10.1746596 L0.0617374729,11.0380226 L0.70816513,11.6819273 L0.70816513,11.6819273 L1.57975298,12.5501135 C1.96712536,12.935974 2.5723947,13.1506089 3.13892681,12.5862879 L9.32962164,6.42940095 L10.4820545,7.57733601 L3.74661723,14.2864858 C2.97491331,15.0425572 1.73416054,15.0328426 0.974483641,14.2647812 L0.0617374729,13.3507741 L0.0617374729,14.3154254 L7.50170823,21.726359 L7.50170823,21.726359 L8.71224691,22.9321732 C8.81669714,23.0676555 8.97734696,23.1484529 9.14880702,23.1517374 C9.32026707,23.1550218 9.48391673,23.0804365 9.59351907,22.9490546 L11.343958,21.2054473 L12.4939698,22.3702638 L9.7508891,25.1122851 C9.60787342,25.2860384 9.39418759,25.3867718 9.16861999,25.3867718 C8.9430524,25.3867718 8.72936656,25.2860384 8.58635089,25.1122851 L0.0617374729,16.6354118 L0.0617374729,17.4987747 C4.26230671,21.6757148 8.51371857,25.9129457 8.63719351,26.0383504 C8.94467034,26.3422155 9.28604225,26.4483272 9.65162493,26.0841713 L12.9418691,22.8067685 L14.096723,23.9619384 L9.72183617,28.3028693 C9.37291976,28.5886933 8.86282425,28.5625562 8.54519257,28.2425786 L0.0714217824,19.8018797 L0.0714217824,20.6604193 L7.50170823,28.0617065 L7.50170823,28.0617065 L8.44834948,29.0263578 C8.8526694,29.4290997 9.34172703,29.5665625 9.83562681,29.0745904 L14.5325169,24.3960315 L15.6873708,25.5463782 L9.8477322,31.3559907 C9.67186944,31.5440749 9.4254427,31.6508955 9.16740945,31.6508955 C8.90937621,31.6508955 8.66294947,31.5440749 8.48708671,31.3559907 C8.42898086,31.2981116 8.07550356,30.9436023 7.50170823,30.374458 L7.50170823,30.374458 L0.0617374729,22.9635243 L0.0617374729,23.8268872 L7.50170823,31.2378209 L7.50170823,31.2378209 L8.37329608,32.1060071 C8.76066846,32.4918676 9.3659378,32.7065025 9.9324699,32.1421815 L16.1255858,25.9780597 L17.2755976,27.1259947 L10.5401603,33.8351445 C9.76791579,34.5898844 8.52826519,34.5801785 7.76802674,33.8134399 L0.0617374729,26.1324039 L0.0617374729,27.0030017 L0.180370264,27.1211715 L0.0617374729,27.2369296 L0.0617374729,28.616381 C0.782388231,28.3634209 1.58483713,28.545425 2.12449539,29.0842369 L12.8087098,39.7315756 L13.6827187,39.7315756 L12.8934475,38.9477965 L17.2683343,34.5923958 C17.6172507,34.3065718 18.1273463,34.3327089 18.4449779,34.6526865 L23.5437669,39.7315756 L24.4056704,39.7315756 L19.4884623,34.831147 L19.4884623,34.831147 L18.5466632,33.8809655 C18.1423433,33.4782236 17.6532856,33.3407607 17.1593858,33.8327329 L12.4624958,38.5112917 L11.3076418,37.3609451 L17.1424383,31.5440977 C17.3186685,31.3566696 17.5649584,31.2503145 17.822761,31.2503145 C18.0805637,31.2503145 18.3268536,31.3566696 18.5030838,31.5440977 L19.4884623,32.5256304 L19.4884623,32.5256304 C21.6044839,34.6358051 24.3136695,37.3320055 26.7202204,39.729164 L27.584545,39.729164 L19.4884623,31.6646791 L19.4884623,31.6646791 L18.6168744,30.7964929 C18.229502,30.4106324 17.6242327,30.1959975 17.0577006,30.7603185 L10.8645847,36.9244403 L9.71457294,35.7789169 L16.4500102,29.0697671 C17.2222547,28.3150272 18.4619053,28.3247331 19.2221438,29.0914717 L29.9039371,39.7339873 L30.777946,39.7339873 L29.9910959,38.9502081 L34.3635616,34.5948074 C34.7136427,34.3098108 35.2236833,34.3358914 35.5426263,34.6550982 L40.6389942,39.7339873 L41.5008977,39.7339873 L36.5836896,34.831147 L36.5836896,34.831147 L35.6370483,33.8882004 C35.2327284,33.4854584 34.7436708,33.3479956 34.249771,33.8399678 L29.555302,38.5185266 L28.4004481,37.3681799 L34.2376656,31.5513326 C34.4138958,31.3639045 34.6601857,31.2575493 34.9179883,31.2575493 C35.175791,31.2575493 35.4220808,31.3639045 35.5983111,31.5513326 L36.5836896,32.5328653 L36.5836896,32.5328653 L43.8154477,39.7363989 L44.6797723,39.7363989 L36.5836896,31.6646791 L36.5836896,31.6646791 L35.7121017,30.7964929 C35.3247293,30.4106324 34.71946,30.1959975 34.1529279,30.7603185 L27.9622331,36.9292636 L26.8098002,35.7789169 L33.5573429,29.0673555 C34.3295874,28.3126156 35.569238,28.3223215 36.3294764,29.0890601 L47.0136909,39.7315756 L47.8852787,39.7315756 L47.0984286,38.9477965 L51.4733154,34.5923958 C51.8222318,34.3065718 52.3323273,34.3327089 52.649959,34.6526865 L57.7487479,39.7315756 L58.6106515,39.7315756 L53.6934433,34.831147 L53.6934433,34.831147 L52.744381,33.8882004 C52.3400611,33.4854584 51.8534245,33.3479956 51.3595248,33.8399678 L46.6626347,38.5185266 L45.5077808,37.3681799 L51.3474194,31.5513326 C51.5236496,31.3639045 51.7699395,31.2575493 52.0277421,31.2575493 C52.2855447,31.2575493 52.5318346,31.3639045 52.7080648,31.5513326 C52.7637496,31.6068 53.119648,31.963721 53.6934433,32.5328653 L53.6934433,32.5328653 L60.9155171,39.7315756 L61.5619448,39.7315756 L61.5619448,39.5121175 L53.6861801,31.6646791 L53.6861801,31.6646791 L52.8145922,30.7964929 C52.4272199,30.4106324 51.8219505,30.1959975 51.2554184,30.7603185 L45.0574604,36.9244403 L43.9050275,35.7789169 L50.6404648,29.0697671 C51.4135356,28.3147502 52.6539486,28.3244536 53.4150194,29.0914717 L61.5571026,37.2041892 L61.5571026,36.3311798 L61.0026759,35.7789169 L61.5571026,35.2266541 L61.5571026,34.0618376 C60.7729101,34.5879105 59.7244578,34.4868107 59.0561297,33.8206748 L46.8151625,21.6274823 L46.8151625,21.6274823 L45.6046238,20.4216681 C45.5001736,20.2861858 45.3395238,20.2053884 45.1680637,20.2021039 C44.9966037,20.1988195 44.832954,20.2734048 44.7233517,20.4047867 L42.9704917,22.1508056 L41.8180588,21.0004589 L44.5708238,18.2584376 C44.713369,18.0847634 44.9266743,17.9840285 45.1518824,17.9840285 C45.3770905,17.9840285 45.5903957,18.0847634 45.7329409,18.2584376 L58.7922323,31.2667604 L58.7922323,31.2667604 L59.6638201,32.1349466 C60.0511925,32.5208071 60.6564618,32.7354421 61.2229939,32.171121 L61.5595237,31.8359047 L61.5595237,30.9628953 L61.1382562,31.380107 C60.9623935,31.5681912 60.7159667,31.6750117 60.4579335,31.6750117 C60.1999003,31.6750117 59.9534735,31.5681912 59.7776108,31.380107 L58.7922323,30.3985743 L58.7922323,30.3985743 L45.6796772,17.3154909 C45.3746215,17.0116258 45.0308285,16.9055141 44.6676669,17.26967 L41.3774228,20.5470728 L40.2225689,19.3991378 L44.5950346,15.0389139 C44.9454905,14.7550578 45.4546662,14.7810942 45.7740993,15.0992046 L58.7898112,28.0617065 L58.7898112,28.0617065 L59.7388735,29.0046531 C60.1431934,29.4073951 60.62983,29.5448579 61.1237298,29.0528857 L61.5571026,28.6236159 L61.5571026,27.7506064 L61.0099391,28.3028693 C60.6610227,28.5886933 60.1509272,28.5625562 59.8332955,28.2425786 L46.8151625,15.2800767 L46.8151625,15.2800767 L45.8685213,14.33713 C45.4642014,13.9343881 44.9751437,13.7969253 44.4812439,14.2888975 L39.7867749,18.9674563 L38.6416053,17.8122864 L44.4788229,11.9978506 C44.6551154,11.8096401 44.9019371,11.7027775 45.1603561,11.7027775 C45.4187752,11.7027775 45.6655969,11.8096401 45.8418894,11.9978506 L46.8248468,12.9793833 L46.8248468,12.9793833 C51.7154231,17.8484608 59.7630843,25.8623015 59.9349808,26.0359387 C60.2424576,26.3398039 60.5838295,26.4459155 60.9494122,26.0817597 L61.5667869,25.4667945 L61.5667869,24.593785 L61.0486764,25.1098735 C60.9056607,25.2836268 60.6919749,25.3843601 60.4664073,25.3843601 C60.2408397,25.3843601 60.0271538,25.2836268 59.8841382,25.1098735 L46.8151625,12.118432 L46.8151625,12.118432 L45.9435747,11.2526575 C45.5562023,10.866797 44.950933,10.652162 44.3868219,11.2140714 L38.193706,17.3757816 L37.0412732,16.2278466 L43.7767104,9.51869676 C44.548955,8.76395686 45.7886056,8.77366281 46.548844,9.54040141 L58.7898112,21.7360055 L58.7898112,21.7360055 L60.0003499,22.9418197 C60.1048001,23.077302 60.2654499,23.1580994 60.43691,23.1613839 C60.60837,23.1646683 60.7720197,23.090083 60.881622,22.9587011 L61.5522605,22.29068 L61.5522605,20.6411263 L60.0608768,22.1266893 L58.9060229,20.9763426 L61.5522605,18.3404329 L61.5522605,17.4746584 L58.4678079,20.5470728 L57.312954,19.3991378 L61.5522605,15.1787883 L61.5522605,14.3154254 L56.8820022,18.962633 L55.7271483,17.8122864 L61.5571026,12.0074971 L61.5571026,11.139311 L61.4820492,11.2068365 L55.2889333,17.3757816 L54.1365005,16.2278466 L60.8743588,9.51869676 C61.067408,9.32552385 61.3003926,9.17656773 61.5571026,9.08219204 L61.5571026,7.80402906 L55.0347202,14.2864858 C54.2630163,15.0425572 53.0222635,15.0328426 52.2625866,14.2647812 L40.0216194,2.07158868 L40.0216194,2.07158868 L38.8110808,0.865774547 C38.7061048,0.731102735 38.5456303,0.650927387 38.3744929,0.647649128 C38.2033555,0.644370869 38.0399049,0.7183412 37.9298086,0.848893149 L36.1769486,2.59491201 L35.0245157,1.44456533 L36.377898,0.0940535023 L35.4942048,0.0940535023 L34.5766164,1.00806061 L33.6638703,0.0868186175 L32.7922824,0.0868186175 L34.9010408,2.18975846 L34.9010408,2.18975846 L36.1115795,3.3955726 C36.2160297,3.53105489 36.3766795,3.61185235 36.5481396,3.61513679 C36.7195996,3.61842123 36.8832493,3.54383596 36.9928516,3.41245399 L38.7457117,1.66884676 L39.8981445,2.81678181 L37.1478006,5.5636264 C37.007447,5.73909466 36.7954016,5.84250008 36.570186,5.84530429 C36.3449704,5.8481085 36.1303965,5.750015 35.9856835,5.57809617 L30.4728903,0.0868186175 L29.6061446,0.0868186175 L36.0365261,6.49210329 C36.3440029,6.79838008 36.6853748,6.90208009 37.0509575,6.53792422 L40.3363595,3.25810978 L41.4912134,4.40604484 L37.1211687,8.76868037 C36.7710877,9.05367702 36.261047,9.02759642 35.9421041,8.70838966 L27.2940157,0.0868186175 L26.4296911,0.0868186175 L34.9034619,8.52751754 L34.9034619,8.52751754 L35.8501031,9.47046419 C36.254423,9.87320611 36.7434807,10.0106689 37.2373805,9.51869676 L41.9318495,4.84254955 L43.0867034,5.99048461 L37.2470648,11.8097436 C37.0700446,11.9966507 36.8234941,12.1025907 36.5655315,12.1025907 C36.3075689,12.1025907 36.0610184,11.9966507 35.8839982,11.8097436 C35.8283134,11.7518645 35.4724151,11.3949435 34.9010408,10.8257993 L34.9010408,10.8257993 C31.620481,7.56286624 26.9066433,2.86501438 24.1151411,0.0868186175 L23.2483954,0.0868186175 L34.8986197,11.6915738 L34.8986197,11.6915738 L35.7702076,12.55976 C36.15758,12.9456205 36.7628493,13.1602554 37.3269603,12.5959344 L43.5224973,6.42940095 L44.6749301,7.57733601 L37.9394929,14.2864858 C37.167789,15.0425572 35.9270362,15.0328426 35.1673593,14.2647812 L22.9263921,2.07158868 L22.9263921,2.07158868 L21.7158535,0.865774547 C21.6108775,0.731102735 21.450403,0.650927387 21.2792656,0.647649128 C21.1081282,0.644370869 20.9446776,0.7183412 20.8345813,0.848893149 L19.0793002,2.5852655 L17.9244463,1.43491882 L19.2729864,0.0868186175 L18.4038196,0.0868186175 L17.4862313,1.00082573 L16.568643,0.0868186175 L15.694634,0.0868186175 L17.8033924,2.18975846 L17.8033924,2.18975846 L19.0139311,3.3955726 C19.1183813,3.53105489 19.2790312,3.61185235 19.4504912,3.61513679 C19.6219513,3.61842123 19.7856009,3.54383596 19.8952033,3.41245399 L21.6456422,1.66884676 L22.8004961,2.81678181 L20.0525733,5.5636264 C19.9117456,5.73917586 19.6993171,5.84257878 19.473742,5.84538162 C19.2481669,5.84818447 19.0332151,5.75009189 18.8880351,5.57809617 L13.3752419,0.0868186175 L12.5109173,0.0868186175 L18.9388777,6.48969166 C19.2463545,6.79596845 19.5901475,6.89966846 19.9533091,6.5355126 L23.2435533,3.25810978 L24.3984072,4.40604484 L20.0235204,8.76868037 C19.674604,9.05450434 19.1645085,9.02836727 18.8468768,8.70838966 L10.1963673,0.0868186175 L9.34656918,0.0868186175 L17.82034,8.52751754 L17.82034,8.52751754 L18.7694023,9.47046419 C19.1737222,9.87320611 19.6603588,10.0106689 20.1542586,9.51869676 L24.8414643,4.84496118 L25.9963182,5.99289624 L20.1494164,11.8097436 C19.9728232,11.996521 19.7266686,12.1024158 19.4690937,12.1024158 C19.2115187,12.1024158 18.9653641,11.996521 18.7887709,11.8097436 C18.7330861,11.7518645 18.3771878,11.3949435 17.8033924,10.8257993 L17.8033924,10.8257993 L7.01991383,0.0868186175 L6.15558921,0.0868186175 L17.8033924,11.6891622 L17.8033924,11.6891622 L18.6749803,12.5573484 C19.0623527,12.9432089 19.667622,13.1578438 20.2341541,12.5935228 L26.42727,6.42940095 L27.5797028,7.57733601 L20.8418445,14.2864858 C20.4709401,14.651802 19.9692101,14.8548803 19.4476192,14.8508071 C18.9260283,14.8467339 18.4275565,14.6358449 18.0624477,14.2647812 L5.82874376,2.07158868 L5.82874376,2.07158868 L4.61820508,0.865774547 C4.51322917,0.731102735 4.35275459,0.650927387 4.1816172,0.647649128 C4.0104798,0.644370869 3.84702927,0.7183412 3.73693292,0.848893149 L1.9840729,2.59491201 L0.831640076,1.44456533 L2.18260125,0.0868186175 L1.30617124,0.0868186175 L0.388582918,0.998414101 L0.0593163955,0.672844286 L0.0593163955,1.53379558 L0.705744053,2.17770032 L0.70816513,2.19217009 Z M4.43904535,17.8122864 L10.278684,11.9978506 C10.4545467,11.8097664 10.7009735,11.7029458 10.9590067,11.7029458 C11.2170399,11.7029458 11.4634667,11.8097664 11.6393294,11.9978506 L12.6247079,12.9793833 L12.6247079,12.9793833 L25.7348419,26.0359387 C26.0398976,26.3398039 26.3836906,26.4459155 26.7468522,26.0817597 L30.0370964,22.8043569 L31.1919503,23.9522919 L26.8170635,28.3028693 C26.4681471,28.5886933 25.9580515,28.5625562 25.6404199,28.2425786 L12.6247079,15.2800767 L12.6247079,15.2800767 L11.6756456,14.33713 C11.2713257,13.9343881 10.7846891,13.7969253 10.2907894,14.2888975 L5.59389926,18.962633 L4.43904535,17.8122864 Z M7.18454709,20.5470728 L6.02969319,19.3991378 L10.40458,15.0389139 C10.7538773,14.7542432 11.2630942,14.7803353 11.5812236,15.0992046 L24.5993566,28.0617065 L24.5993566,28.0617065 L25.5459979,29.0046531 C25.9503178,29.4073951 26.4393754,29.5448579 26.9332752,29.0528857 L31.620481,24.3912083 L32.7753349,25.5415549 L26.9381173,31.3559907 C26.7618248,31.5442012 26.5150031,31.6510638 26.2565841,31.6510638 C25.998165,31.6510638 25.7513433,31.5442012 25.5750508,31.3559907 L24.5993566,30.3672231 L24.5993566,30.3672231 C19.7087803,25.495734 11.6611191,17.4818933 11.4892227,17.3082561 C11.1817458,17.0043909 10.8379528,16.8982792 10.4747912,17.2624351 L7.18454709,20.5470728 Z M27.6378087,33.8351445 C26.8655642,34.5898844 25.6259136,34.5801785 24.8656751,33.8134399 L12.6247079,21.6202474 L12.6247079,21.6202474 L11.4141693,20.4144333 C11.309719,20.278951 11.1490692,20.1981535 10.9776091,20.1948691 C10.8061491,20.1915846 10.6424994,20.2661699 10.5328971,20.3975519 L8.78245815,22.1435707 L7.62760425,20.993224 L10.3755271,18.2415562 C10.5185427,18.0678029 10.7322286,17.9670695 10.9577962,17.9670695 C11.1833638,17.9670695 11.3970496,18.0678029 11.5400653,18.2415562 L24.5993566,31.2378209 L24.5993566,31.2378209 L25.4685234,32.1060071 C25.8558958,32.4918676 26.4635862,32.7065025 27.0276972,32.1421815 L33.2208131,25.9732364 L34.3732459,27.1211715 L27.6378087,33.8351445 Z M51.4733154,27.1259947 L44.7378781,33.8351445 C43.9656336,34.5898844 42.725983,34.5801785 41.9657446,33.8134399 L29.7247774,21.6202474 L29.7247774,21.6202474 L28.5142387,20.4144333 C28.4102748,20.2790225 28.2500064,20.1982113 28.0788993,20.1949246 C27.9077922,20.1916379 27.7445152,20.2662343 27.6353876,20.3975519 L25.8825276,22.1435707 L24.7276737,20.993224 L27.4804387,18.2512027 C27.6234543,18.0774494 27.8371402,17.9767161 28.0627078,17.9767161 C28.2882754,17.9767161 28.5019612,18.0774494 28.6449769,18.2512027 L41.7042682,31.2595256 L41.7042682,31.2595256 L42.5758561,32.1277117 C42.9632284,32.5135723 43.5684978,32.7282072 44.1350299,32.1638862 L50.3257247,25.9949411 L51.4733154,27.1259947 Z M49.8826676,25.5415549 L44.0406079,31.3559907 C43.8647451,31.5440749 43.6183184,31.6508955 43.3602851,31.6508955 C43.1022519,31.6508955 42.8558251,31.5440749 42.6799624,31.3559907 L41.6945839,30.374458 L41.6945839,30.374458 C36.8040076,25.5029689 28.7563464,17.4891282 28.5844499,17.3154909 C28.2769731,17.0116258 27.9356012,16.9055141 27.5700185,17.26967 L24.2797744,20.5470728 L23.1273416,19.3991378 L27.5046494,15.0389139 C27.8539467,14.7542432 28.3631637,14.7803353 28.681293,15.0992046 L41.6945839,28.0617065 L41.6945839,28.0617065 L42.6412251,29.0046531 C43.0455451,29.4073951 43.5346027,29.5448579 44.0285025,29.0528857 L48.7253926,24.3743269 L49.8826676,25.5415549 Z M47.1395869,22.8067685 L48.2920197,23.9547035 L43.9147118,28.3028693 C43.5646307,28.587866 43.0545901,28.5617854 42.7356472,28.2425786 L29.7199352,15.2800767 L29.7199352,15.2800767 L28.773294,14.33713 C28.3689741,13.9343881 27.8799164,13.7969253 27.3860167,14.2888975 L22.6891266,18.9674563 L21.5366937,17.8171096 L27.3739113,12.0026739 C27.549774,11.8145896 27.7962008,11.7077691 28.054234,11.7077691 C28.3122672,11.7077691 28.558694,11.8145896 28.7345567,12.0026739 L29.7199352,12.9842066 L29.7199352,12.9842066 C34.6105115,17.853284 42.6581727,25.8671248 42.8300692,26.040762 C43.137546,26.3446272 43.4789179,26.4507388 43.8445006,26.0865829 L47.1395869,22.8067685 Z M26.6814831,9.51869676 C27.4537277,8.76395686 28.6933783,8.77366281 29.4536167,9.54040141 L41.6945839,21.7360055 L41.6945839,21.7360055 L42.9051226,22.9418197 C43.0100985,23.0764915 43.1705731,23.1566668 43.3417105,23.1599451 C43.5128479,23.1632234 43.6762984,23.089253 43.7863947,22.9587011 L45.5392548,21.2150938 L46.6941087,22.3630289 L43.9437648,25.1122851 C43.8007491,25.2860384 43.5870633,25.3867718 43.3614957,25.3867718 C43.1359281,25.3867718 42.9222422,25.2860384 42.7792266,25.1122851 L29.7199352,12.118432 L29.7199352,12.118432 L28.8483474,11.2526575 C28.460975,10.866797 27.8557057,10.652162 27.2891736,11.2140714 L21.0984787,17.3757816 L19.9460459,16.2278466 L26.6814831,9.51869676 Z M12.3559683,9.54040141 L24.5993566,21.7360055 L24.5993566,21.7360055 L25.8098953,22.9418197 C25.9143455,23.077302 26.0749953,23.1580994 26.2464554,23.1613839 C26.4179154,23.1646683 26.5815651,23.090083 26.6911674,22.9587011 L28.4416064,21.2150938 L29.5964603,22.3630289 L26.8436953,25.1050502 C26.7011501,25.2787244 26.4878448,25.3794594 26.2626368,25.3794594 C26.0374287,25.3794594 25.8241234,25.2787244 25.6815782,25.1050502 L12.6247079,12.118432 L12.6247079,12.118432 L11.7531201,11.2526575 C11.3657477,10.866797 10.7604784,10.652162 10.1939463,11.2140714 L4.00083035,17.3757816 L2.84839752,16.2278466 L9.58867692,9.51869676 C10.3603433,8.76716218 11.5962785,8.77685597 12.3559683,9.54040141 Z" id="Shape" stroke="none" fill="none"></path>
                            <path d="M0.70816513,10.8185644 L1.69354362,11.8025087 C1.87013679,11.9892861 2.11629139,12.0951809 2.37386636,12.0951809 C2.63144133,12.0951809 2.87759592,11.9892861 3.0541891,11.8025087 L8.89140663,5.99289624 L7.73897381,4.84496118 L3.05176802,9.52110839 C2.56755255,10.003434 2.06881061,9.87561774 1.66449069,9.47287582 L0.70816513,8.52751754 L0.70816513,8.52751754 L0.0617374729,7.88361279 L0.0617374729,10.1867178 C0.282055513,10.406176 0.499952477,10.6208109 0.70816513,10.8306225 L0.70816513,10.8185644 Z" id="Path" stroke="none" fill="#54565A" fill-rule="nonzero"></path>
                            <path d="M1.79280779,5.57809617 C1.93798778,5.75009189 2.15293962,5.84818447 2.37851469,5.84538162 C2.60408975,5.84257878 2.81651828,5.73917586 2.95734601,5.5636264 L5.71495313,2.82160507 L4.56009922,1.67367002 L2.80966029,3.41727725 C2.69956394,3.5478292 2.5361134,3.62179953 2.36497601,3.61852127 C2.19383861,3.61524301 2.03336403,3.53506766 1.92838812,3.40039585 L0.71784944,2.19458172 L0.71784944,2.19458172 L0.0617374729,1.53379558 L0.0617374729,3.84413545 L1.79280779,5.57809617 Z" id="Path" stroke="none" fill="#54565A" fill-rule="nonzero"></path>
                            <path d="M3.74661723,14.2864858 L10.4820545,7.57733601 L9.32962164,6.42940095 L3.13892681,12.5983461 C2.5723947,13.1626671 1.96712536,12.9480321 1.57975298,12.5621716 L0.70816513,11.6939855 L0.70816513,11.6939855 L0.0617374729,11.0500807 L0.0617374729,13.3507741 L0.974483641,14.2599579 C1.73281721,15.029368 2.97358364,15.0412415 3.74661723,14.2864858 Z" id="Path" stroke="none" fill="#54565A" fill-rule="nonzero"></path>
                            <polygon id="Path" stroke="none" fill="#AAABAD" fill-rule="nonzero" points="1.30617124 0.0844069892 0.0617374729 0.0844069892 0.0617374729 0.672844286 0.391003995 0.998414101"></polygon>
                            <path d="M17.8033924,10.8185644 C18.3771878,11.3877087 18.7330861,11.7446296 18.7887709,11.8025087 C18.9653641,11.9892861 19.2115187,12.0951809 19.4690937,12.0951809 C19.7266686,12.0951809 19.9728232,11.9892861 20.1494164,11.8025087 L25.989055,5.98566135 L24.8414643,4.84496118 L20.137311,9.52110839 C19.6530955,10.003434 19.1688801,9.87561774 18.7524548,9.47287582 L17.8033924,8.52751754 L17.8033924,8.52751754 L9.34656918,0.0868186175 L7.01991383,0.0868186175 L17.8033924,10.8257993 L17.8033924,10.8185644 Z" id="Path" stroke="none" fill="#54565A" fill-rule="nonzero"></path>
                            <path d="M20.0525733,5.5636264 L22.8053383,2.82160507 L21.6504844,1.67367002 L19.9000454,3.41727725 C19.7903734,3.54421652 19.6295735,3.61581082 19.4614744,3.61254591 C19.2933753,3.609281 19.1354995,3.53149722 19.0308787,3.40039585 L17.82034,2.19458172 L17.82034,2.19458172 L15.694634,0.0868186175 L13.3752419,0.0868186175 L18.8880351,5.57809617 C19.0332151,5.75009189 19.2481669,5.84818447 19.473742,5.84538162 C19.6993171,5.84257878 19.9117456,5.73917586 20.0525733,5.5636264 L20.0525733,5.5636264 Z" id="Path" stroke="none" fill="#54565A" fill-rule="nonzero"></path>
                            <path d="M2.92829308,8.76868037 L7.3007588,4.40604484 L6.14832598,3.25810978 L2.85808183,6.5355126 C2.49249915,6.89966846 2.15112724,6.79596845 1.84365042,6.48969166 L0.0617374729,4.71473326 L0.0617374729,7.02024988 L1.75649163,8.70838966 C2.07348739,9.02548219 2.58018599,9.05155249 2.92829308,8.76868037 Z" id="Path" stroke="none" fill="#54565A" fill-rule="nonzero"></path>
                            <path d="M34.9010408,10.8185644 C35.4724151,11.3877087 35.8283134,11.7446296 35.8839982,11.8025087 C36.0610184,11.9894158 36.3075689,12.0953558 36.5655315,12.0953558 C36.8234941,12.0953558 37.0700446,11.9894158 37.2470648,11.8025087 L43.0842823,5.98566135 L41.9294284,4.8377263 L37.2349594,9.52110839 C36.7507439,10.003434 36.252002,9.87561774 35.8476821,9.47287582 L34.9010408,8.52751754 L34.9010408,8.52751754 L26.42727,0.0868186175 L24.1151411,0.0868186175 C26.9042223,2.86742601 31.620481,7.56286624 34.8986197,10.8282109 L34.9010408,10.8185644 Z" id="Path" stroke="none" fill="#54565A" fill-rule="nonzero"></path>
                            <polygon id="Path" stroke="none" fill="#AAABAD" fill-rule="nonzero" points="18.4038196 0.0844069892 16.568643 0.0844069892 17.4862313 0.998414101"></polygon>
                            <path d="M37.1478006,5.5636264 L39.9005656,2.82160507 L38.7481327,1.67367002 L36.9952727,3.41727725 C36.8856704,3.54865922 36.7220207,3.62324449 36.5505607,3.61996005 C36.3791006,3.61667561 36.2184508,3.53587815 36.1140006,3.40039585 L34.9034619,2.19458172 L34.9034619,2.19458172 L32.7922824,0.0868186175 L30.4728903,0.0868186175 L35.9784202,5.57809617 C36.1230755,5.75267998 36.3393531,5.85257605 36.5665886,5.84976426 C36.7938242,5.84695248 37.0075438,5.74173568 37.1478006,5.5636264 Z" id="Path" stroke="none" fill="#54565A" fill-rule="nonzero"></path>
                            <path d="M20.0235204,8.76868037 L24.3984072,4.41327972 L23.2435533,3.26534467 L19.9533091,6.5355126 C19.5901475,6.89966846 19.2463545,6.79596845 18.9388777,6.48969166 L12.5109173,0.0868186175 L10.1963673,0.0868186175 L18.8468768,8.70115478 C19.1625698,9.02331618 19.6727725,9.05259585 20.0235204,8.76868037 Z" id="Path" stroke="none" fill="#54565A" fill-rule="nonzero"></path>
                            <path d="M1.98165183,2.5852655 L3.73451184,0.839246636 C3.84460819,0.708694687 4.00805873,0.634724356 4.17919612,0.638002615 C4.35033351,0.641280874 4.5108081,0.721456222 4.615784,0.856128034 L5.82632269,2.06194217 L5.82632269,2.06194217 L18.0624477,14.2647812 C18.8221246,15.0328426 20.0628774,15.0425572 20.8345813,14.2864858 L27.5724396,7.57733601 L26.4200068,6.42940095 L20.2414173,12.5983461 C19.6748852,13.1626671 19.0696159,12.9480321 18.6822435,12.5621716 L17.8106557,11.6939855 L17.8106557,11.6939855 L6.15558921,0.0868186175 L2.18260125,0.0868186175 L0.829218999,1.43733045 L1.98165183,2.5852655 Z" id="Path" stroke="none" fill="#54565A" fill-rule="nonzero"></path>
                            <polygon id="Path" stroke="none" fill="#AAABAD" fill-rule="nonzero" points="35.4990469 0.0844069892 33.6638703 0.0844069892 34.5838797 0.998414101"></polygon>
                            <path d="M51.9962681,10.8185644 L52.9816466,11.8025087 C53.1582398,11.9892861 53.4043944,12.0951809 53.6619693,12.0951809 C53.9195443,12.0951809 54.1656989,11.9892861 54.3422921,11.8025087 L60.1891939,5.99289624 L59.0367611,4.84496118 L54.3301867,9.52110839 C53.8459712,10.003434 53.3472293,9.87561774 52.9429093,9.47287582 L51.9962681,8.52751754 L51.9962681,8.52751754 L43.5224973,0.0868186175 L41.2079473,0.0868186175 C43.9970285,2.86742601 48.7132872,7.56286624 51.9914259,10.8282109 L51.9962681,10.8185644 Z" id="Path" stroke="none" fill="#54565A" fill-rule="nonzero"></path>
                            <path d="M54.245449,5.5636264 L56.9982139,2.82160507 L55.84336,1.67367002 L54.0905,3.41727725 C53.9813724,3.54859483 53.8180955,3.62319121 53.6469884,3.6199045 C53.4758812,3.61661779 53.3156128,3.53580659 53.2116489,3.40039585 L52.0011103,2.19458172 L52.0011103,2.19458172 L49.8875097,0.0868186175 L47.5681176,0.0868186175 L53.0809108,5.5805078 C53.2264493,5.7522144 53.441613,5.84986963 53.6671908,5.8465996 C53.8927686,5.84332958 54.1049883,5.73947891 54.245449,5.5636264 L54.245449,5.5636264 Z" id="Path" stroke="none" fill="#54565A" fill-rule="nonzero"></path>
                            <path d="M37.1211687,8.76868037 L41.4936345,4.41327972 L40.3363595,3.25810978 L37.0509575,6.5355126 C36.6853748,6.89966846 36.3440029,6.79596845 36.0365261,6.48969166 L29.6061446,0.0868186175 L27.2940157,0.0868186175 L35.9421041,8.7035664 C36.259762,9.02422884 36.7698717,9.0523997 37.1211687,8.76868037 Z" id="Path" stroke="none" fill="#54565A" fill-rule="nonzero"></path>
                            <path d="M19.0793002,2.5852655 L20.8297391,0.839246636 C20.9398355,0.708694687 21.103286,0.634724356 21.2744234,0.638002615 C21.4455608,0.641280874 21.6060354,0.721456222 21.7110113,0.856128034 L22.92155,2.06194217 L22.92155,2.06194217 L35.1625172,14.2551347 C35.9221941,15.0231961 37.1629468,15.0329107 37.9346507,14.2768393 L44.670088,7.56768949 L43.5176552,6.41975444 L37.3293814,12.5983461 C36.7652704,13.1626671 36.160001,12.9480321 35.7726287,12.5621716 L34.9010408,11.6939855 L34.9010408,11.6939855 L23.2508165,0.0868186175 L19.2729864,0.0868186175 L17.9171831,1.43733045 L19.0793002,2.5852655 Z" id="Path" stroke="none" fill="#54565A" fill-rule="nonzero"></path>
                            <path d="M54.216396,8.76868037 L58.5888618,4.41327972 L57.4364289,3.26534467 L54.1365005,6.5355126 C53.7709178,6.89966846 53.4295459,6.79596845 53.1220691,6.48969166 L46.7013719,0.0868186175 L44.389243,0.0868186175 L53.0397524,8.7035664 C53.3560927,9.02499825 53.8662583,9.05323017 54.216396,8.76868037 L54.216396,8.76868037 Z" id="Path" stroke="none" fill="#54565A" fill-rule="nonzero"></path>
                            <path d="M36.1745275,2.5852655 L37.9273875,0.839246636 C38.0374839,0.708694687 38.2009344,0.634724356 38.3720718,0.638002615 C38.5432092,0.641280874 38.7036838,0.721456222 38.8086597,0.856128034 L40.0191984,2.06194217 L40.0191984,2.06194217 L52.2601655,14.2551347 C53.0198424,15.0231961 54.2605952,15.0329107 55.0322991,14.2768393 L61.5571026,7.80402906 L61.5571026,7.36511272 L60.6201457,6.42940095 L54.4270298,12.5983461 C53.8604977,13.1626671 53.2552283,12.9480321 52.867856,12.5621716 L51.9962681,11.6939855 L51.9962681,11.6939855 L40.3484649,0.0868186175 L36.3754769,0.0868186175 L35.0220947,1.43733045 L36.1745275,2.5852655 Z" id="Path" stroke="none" fill="#54565A" fill-rule="nonzero"></path>
                            <polygon id="Path" stroke="none" fill="#AAABAD" fill-rule="nonzero" points="61.5571026 0.0844069892 61.4844703 0.0844069892 61.5571026 0.156755837"></polygon>
                            <polygon id="Path" stroke="none" fill="#AAABAD" fill-rule="nonzero" points="52.5942742 0.0844069892 50.7590976 0.0844069892 51.679107 0.998414101"></polygon>
                            <polygon id="Path" stroke="none" fill="#AAABAD" fill-rule="nonzero" points="61.5571026 1.0152955 60.6225668 0.0868186175 58.3080168 0.0868186175 61.5571026 3.32322375"></polygon>
                            <path d="M53.2721759,2.5852655 L55.0226148,0.839246636 C55.1327112,0.708694687 55.2961617,0.634724356 55.4672991,0.638002615 C55.6384365,0.641280874 55.7989111,0.721456222 55.903887,0.856128034 L57.1144257,2.06194217 L57.1144257,2.06194217 L61.5546815,6.48245677 L61.5546815,4.18658667 L57.43885,0.0868186175 L53.4707042,0.0868186175 L52.117322,1.43733045 L53.2721759,2.5852655 Z" id="Path" stroke="none" fill="#54565A" fill-rule="nonzero"></path>
                            <path d="M7.50170823,30.3672231 C8.07550356,30.9363674 8.42898086,31.2908767 8.48708671,31.3487558 C8.66294947,31.5368401 8.90937621,31.6436606 9.16740945,31.6436606 C9.4254427,31.6436606 9.67186944,31.5368401 9.8477322,31.3487558 L15.6873708,25.5343201 L14.5325169,24.3839734 L9.83078465,29.0697671 C9.34656918,29.5520927 8.84782724,29.4242764 8.44350732,29.0215345 L7.49686607,28.0785879 L7.49686607,28.0785879 L0.0617374729,20.6604193 L0.0617374729,22.9635243 L7.50170823,30.374458 L7.50170823,30.3672231 Z" id="Path" stroke="none" fill="#54565A" fill-rule="nonzero"></path>
                            <path d="M9.72183617,28.3028693 L14.096723,23.9619384 L12.9418691,22.8140034 L9.65162493,26.0841713 C9.28604225,26.4483272 8.94467034,26.3422155 8.63719351,26.0383504 C8.51371857,25.9129457 4.25746455,21.6757148 0.0617374729,17.4987747 L0.0617374729,19.8018797 L8.53550826,28.2425786 C8.85437364,28.5683917 9.37133671,28.5946644 9.72183617,28.3028693 Z" id="Path" stroke="none" fill="#54565A" fill-rule="nonzero"></path>
                            <path d="M9.7508891,25.1122851 L12.4939698,22.3702638 L11.3391159,21.2223287 L9.58867692,22.965936 C9.47907457,23.0973179 9.31542492,23.1719032 9.14396486,23.1686188 C8.9725048,23.1653343 8.81185499,23.0845369 8.70740475,22.9490546 L7.49686607,21.7432404 L7.49686607,21.7432404 L0.0617374729,14.3154254 L0.0617374729,16.6257653 L8.58635089,25.1146967 C8.72972888,25.2881544 8.94362508,25.3884456 9.16919289,25.3879801 C9.39476069,25.3875114 9.6082364,25.2863351 9.7508891,25.1122851 L9.7508891,25.1122851 Z" id="Path" stroke="none" fill="#54565A" fill-rule="nonzero"></path>
                            <polygon id="Path" stroke="none" fill="#AAABAD" fill-rule="nonzero" points="0.0617374729 27.0078249 0.0617374729 27.2417529 0.180370264 27.1259947"></polygon>
                            <path d="M11.4892227,17.3154909 L24.5993566,30.374458 L24.5993566,30.374458 L25.582314,31.3559907 C25.7586066,31.5442012 26.0054283,31.6510638 26.2638473,31.6510638 C26.5222663,31.6510638 26.769088,31.5442012 26.9453806,31.3559907 L32.7825981,25.5415549 L31.620481,24.3912083 L26.926012,29.0697671 C26.4417965,29.5520927 25.9430545,29.4242764 25.5387346,29.0215345 L24.5993566,28.0785879 L24.5993566,28.0785879 L11.5812236,15.1040278 C11.2643806,14.783703 10.7550943,14.7555198 10.40458,15.0389139 L6.02969319,19.3991378 L7.18454709,20.5470728 L10.4747912,17.26967 C10.8379528,16.9055141 11.1817458,17.0116258 11.4892227,17.3154909 Z" id="Path" stroke="none" fill="#54565A" fill-rule="nonzero"></path>
                            <path d="M11.6756456,14.3323068 L12.6247079,15.2800767 L12.6247079,15.2800767 L25.6404199,28.2449902 C25.9580515,28.5649678 26.4681471,28.5911049 26.8170635,28.3052809 L31.1919503,23.9619384 L30.0370964,22.8140034 L26.7468522,26.0841713 C26.3836906,26.4483272 26.0398976,26.3422155 25.7348419,26.0383504 L12.6247079,12.9817949 L12.6247079,12.9817949 L11.6393294,12.0002622 C11.4634667,11.812178 11.2170399,11.7053575 10.9590067,11.7053575 C10.7009735,11.7053575 10.4545467,11.812178 10.278684,12.0002622 L4.43904535,17.8122864 L5.59389926,18.962633 L10.2907894,14.2840742 C10.7846891,13.792102 11.2834311,13.9295649 11.6756456,14.3323068 Z" id="Path" stroke="none" fill="#54565A" fill-rule="nonzero"></path>
                            <path d="M2.84839752,16.2278466 L4.00083035,17.3757816 L10.1939463,11.2068365 C10.7604784,10.6449272 11.3657477,10.8595621 11.7531201,11.2454226 L12.6247079,12.1111971 L12.6247079,12.1111971 L25.6839993,25.1171084 C25.8265445,25.2907825 26.0398497,25.3915175 26.2650578,25.3915175 C26.4902659,25.3915175 26.7035712,25.2907825 26.8461164,25.1171084 L29.5988814,22.375087 L28.4440275,21.227152 L26.6935885,22.9707592 C26.5839862,23.1021412 26.4203365,23.1767265 26.2488765,23.173442 C26.0774164,23.1701576 25.9167666,23.0893601 25.8123164,22.9538778 L24.6017777,21.7480637 L24.6017777,21.7480637 L12.3559683,9.54040141 C11.5962785,8.77685597 10.3603433,8.76716218 9.58867692,9.51869676 L2.84839752,16.2278466 Z" id="Path" stroke="none" fill="#54565A" fill-rule="nonzero"></path>
                            <path d="M10.5401603,33.8351445 L17.2755976,27.1259947 L16.1255858,25.9780597 L9.9324699,32.1470048 C9.3659378,32.7113258 8.76066846,32.4966909 8.37329608,32.1108303 L7.50170823,31.2426442 L7.50170823,31.2426442 L0.0617374729,23.8268872 L0.0617374729,26.1324039 L7.76802674,33.8086166 C8.52692422,34.5767047 9.76658842,34.5885677 10.5401603,33.8351445 Z" id="Path" stroke="none" fill="#54565A" fill-rule="nonzero"></path>
                            <path d="M27.2891736,11.2068365 C27.8557057,10.6449272 28.460975,10.8595621 28.8483474,11.2454226 L29.7199352,12.1111971 L29.7199352,12.1111971 L42.7792266,25.1171084 C42.9222422,25.2908617 43.1359281,25.391595 43.3614957,25.391595 C43.5870633,25.391595 43.8007491,25.2908617 43.9437648,25.1171084 L46.6965297,22.375087 L45.5416758,21.227152 L43.7888158,22.9707592 C43.6787195,23.1013112 43.5152689,23.1752815 43.3441315,23.1720032 C43.1729941,23.168725 43.0125196,23.0885496 42.9075437,22.9538778 L41.697005,21.7480637 L41.697005,21.7480637 L29.4536167,9.54040141 C28.6933783,8.77366281 27.4537277,8.76395686 26.6814831,9.51869676 L19.9460459,16.2278466 L21.0984787,17.3757816 L27.2891736,11.2068365 Z" id="Path" stroke="none" fill="#54565A" fill-rule="nonzero"></path>
                            <path d="M27.020434,32.1470048 C26.4563229,32.7113258 25.8486325,32.4966909 25.4612601,32.1108303 L24.5920934,31.2426442 L24.5920934,31.2426442 L11.5400653,18.229498 C11.3970496,18.0557447 11.1833638,17.9550114 10.9577962,17.9550114 C10.7322286,17.9550114 10.5185427,18.0557447 10.3755271,18.229498 L7.62276209,20.9835775 L8.777616,22.1339242 L10.5280549,20.3879053 C10.6376573,20.2565234 10.8013069,20.1819381 10.972767,20.1852225 C11.144227,20.188507 11.3048769,20.2693044 11.4093271,20.4047867 L12.6198658,21.6106009 L12.6198658,21.6106009 L24.860833,33.8037934 C25.6210714,34.570532 26.860722,34.5802379 27.6329665,33.825498 L34.3684038,27.1163482 L33.215971,25.9684131 L27.020434,32.1470048 Z" id="Path" stroke="none" fill="#54565A" fill-rule="nonzero"></path>
                            <path d="M59.7388735,29.0263578 L58.7898112,28.0834111 L58.7898112,28.0834111 L45.7740993,15.1040278 C45.4546662,14.7859174 44.9454905,14.7598811 44.5950346,15.0437371 L40.2225689,19.3991378 L41.3774228,20.5470728 L44.6676669,17.26967 C45.0308285,16.9055141 45.3746215,17.0116258 45.6796772,17.3154909 L58.7898112,30.374458 L58.7898112,30.374458 L59.7751897,31.3559907 C59.9510524,31.5440749 60.1974792,31.6508955 60.4555124,31.6508955 C60.7135457,31.6508955 60.9599724,31.5440749 61.1358352,31.3559907 L61.5571026,30.938779 L61.5571026,28.6404973 L61.1237298,29.0697671 C60.62983,29.5617393 60.1431934,29.4242764 59.7388735,29.0263578 Z" id="Path" stroke="none" fill="#54565A" fill-rule="nonzero"></path>
                            <path d="M60.005192,22.9490546 L58.7946533,21.7432404 L58.7946533,21.7432404 L46.548844,9.54040141 C45.7886056,8.77366281 44.548955,8.76395686 43.7767104,9.51869676 L37.0412732,16.2278466 L38.193706,17.3757816 L44.3868219,11.2068365 C44.950933,10.6449272 45.5562023,10.8595621 45.9435747,11.2454226 L46.8151625,12.1111971 L46.8151625,12.1111971 L59.8744539,25.1171084 C60.0174695,25.2908617 60.2311554,25.391595 60.456723,25.391595 C60.6822906,25.391595 60.8959764,25.2908617 61.0389921,25.1171084 L61.5571026,24.6010199 L61.5571026,22.2979149 L60.8864642,22.965936 C60.7768618,23.0973179 60.6132122,23.1719032 60.4417521,23.1686188 C60.2702921,23.1653343 60.1096423,23.0845369 60.005192,22.9490546 L60.005192,22.9490546 Z" id="Path" stroke="none" fill="#54565A" fill-rule="nonzero"></path>
                            <path d="M42.8300692,26.0383504 C42.6581727,25.8647131 34.5984061,17.8508724 29.7199352,12.9817949 L29.7199352,12.9817949 L28.7345567,12.0002622 C28.558694,11.812178 28.3122672,11.7053575 28.054234,11.7053575 C27.7962008,11.7053575 27.549774,11.812178 27.3739113,12.0002622 L21.5366937,17.8122864 L22.6891266,18.962633 L27.3860167,14.2840742 C27.8702321,13.8017486 28.3689741,13.9295649 28.773294,14.3323068 L29.7199352,15.2800767 L29.7199352,15.2800767 L42.7356472,28.2449902 C43.0545901,28.564197 43.5646307,28.5902776 43.9147118,28.3052809 L48.2871776,23.9619384 L47.1347447,22.8140034 L43.8445006,26.0841713 C43.4837601,26.4483272 43.137546,26.3422155 42.8300692,26.0383504 Z" id="Path" stroke="none" fill="#54565A" fill-rule="nonzero"></path>
                            <path d="M42.6412251,29.0263578 L41.6945839,28.0834111 L41.6945839,28.0834111 L28.6764509,15.1040278 C28.3602452,14.7865715 27.8543403,14.7584597 27.5046494,15.0389139 L23.1273416,19.3991378 L24.2797744,20.5470728 L27.5700185,17.26967 C27.9356012,16.9055141 28.2769731,17.0116258 28.5844499,17.3154909 C28.7563464,17.4891282 36.8040076,25.515027 41.6945839,30.374458 L41.6945839,30.374458 L42.6799624,31.3559907 C42.8558251,31.5440749 43.1022519,31.6508955 43.3602851,31.6508955 C43.6183184,31.6508955 43.8647451,31.5440749 44.0406079,31.3559907 L49.8778254,25.5415549 L48.7253926,24.3912083 L44.0285025,29.0697671 C43.5346027,29.5617393 43.0455451,29.4242764 42.6412251,29.0263578 Z" id="Path" stroke="none" fill="#54565A" fill-rule="nonzero"></path>
                            <path d="M42.5661717,32.1108303 L41.6945839,31.2426442 L41.6945839,31.2426442 L28.6352926,18.229498 C28.4922769,18.0557447 28.2785911,17.9550114 28.0530235,17.9550114 C27.8274559,17.9550114 27.61377,18.0557447 27.4707544,18.229498 L24.7179894,20.9715194 L25.8728433,22.1218661 L27.6257033,20.3758472 C27.7348309,20.2445296 27.8981079,20.1699332 28.069215,20.17322 C28.2403221,20.1765067 28.4005905,20.2573179 28.5045544,20.3927286 L29.7150931,21.5985427 L29.7150931,21.5985427 L41.9560603,33.7917352 C42.7162987,34.5584738 43.9559493,34.5681798 44.7281938,33.8134399 L51.4733154,27.1259947 L50.3208826,25.9780597 L44.1301877,32.1470048 C43.5588135,32.7113258 42.9535441,32.4966909 42.5661717,32.1108303 Z" id="Path" stroke="none" fill="#54565A" fill-rule="nonzero"></path>
                            <polygon id="Path" stroke="none" fill="#54565A" fill-rule="nonzero" points="60.065719 22.1339242 61.5571026 20.6483612 61.5571026 18.3476678 58.9108651 20.9835775"></polygon>
                            <path d="M59.9252965,26.0383504 C59.7534,25.8647131 51.6936334,17.8508724 46.8151625,12.9817949 L46.8151625,12.9817949 L45.8322051,12.0002622 C45.6559126,11.8120517 45.4090909,11.7051891 45.1506718,11.7051891 C44.8922528,11.7051891 44.6454311,11.8120517 44.4691386,12.0002622 L38.6416053,17.8122864 L39.7964592,18.962633 L44.4909283,14.2840742 C44.9751437,13.8017486 45.4738857,13.9295649 45.8782056,14.3323068 L46.8151625,15.2800767 L46.8151625,15.2800767 L59.8332955,28.2449902 C60.1509272,28.5649678 60.6610227,28.5911049 61.0099391,28.3052809 L61.5571026,27.7626646 L61.5571026,25.4643828 L60.9397279,26.079348 C60.5741452,26.4483272 60.2327733,26.3422155 59.9252965,26.0383504 Z" id="Path" stroke="none" fill="#54565A" fill-rule="nonzero"></path>
                            <path d="M59.661399,32.1108303 L58.7898112,31.2426442 L58.7898112,31.2426442 L45.7305199,18.229498 C45.5879746,18.0558239 45.3746694,17.9550889 45.1494613,17.9550889 C44.9242532,17.9550889 44.710948,18.0558239 44.5684027,18.229498 L41.8156378,20.9715194 L42.9680706,22.1218661 L44.7209306,20.3758472 C44.830533,20.2444652 44.9941826,20.16988 45.1656427,20.1731644 C45.3371027,20.1764488 45.4977525,20.2572463 45.6022028,20.3927286 L46.8127415,21.5985427 L46.8127415,21.5985427 L59.0537086,33.7917352 C59.7220367,34.4578712 60.770489,34.5589709 61.5546815,34.0328981 L61.5546815,31.7852605 L61.2181518,32.1204768 C60.6540408,32.7113258 60.0487714,32.4966909 59.661399,32.1108303 Z" id="Path" stroke="none" fill="#54565A" fill-rule="nonzero"></path>
                            <polygon id="Path" stroke="none" fill="#54565A" fill-rule="nonzero" points="56.8820022 18.962633 61.5571026 14.3057789 61.5571026 12.0050855 55.7271483 17.8122864"></polygon>
                            <polygon id="Path" stroke="none" fill="#54565A" fill-rule="nonzero" points="58.4726501 20.5470728 61.5571026 17.4746584 61.5571026 15.1787883 57.3177962 19.3991378"></polygon>
                            <path d="M54.1365005,16.2278466 L55.2889333,17.3757816 L61.4820492,11.2068365 L61.5571026,11.139311 L61.5571026,9.08219204 C61.3003926,9.17656773 61.067408,9.32552385 60.8743588,9.51869676 L54.1365005,16.2278466 Z" id="Path" stroke="none" fill="#54565A" fill-rule="nonzero"></path>
                            <path d="M0.170685954,34.5923958 L0.0617374729,34.7009191 L0.0617374729,36.9967892 L0.243318276,36.8183287 C0.606479881,36.4541728 0.950272867,36.5602845 1.25532862,36.8641496 L4.13398961,39.7315756 L6.44127634,39.7315756 L1.35701386,34.6526865 C1.03712391,34.3291388 0.521973211,34.3029582 0.170685954,34.5923958 Z" id="Path" stroke="none" fill="#54565A" fill-rule="nonzero"></path>
                            <path d="M0.0617374729,28.6212042 L0.0617374729,30.6638534 C0.599216649,30.2177021 1.15606444,30.4226905 1.51438389,30.7916697 L2.38355067,31.6598558 L2.38355067,31.6598558 L10.4820545,39.7267524 L12.8087098,39.7267524 L2.12449539,29.0890601 C1.58483713,28.5502482 0.782388231,28.3682441 0.0617374729,28.6212042 Z" id="Path" stroke="none" fill="#54565A" fill-rule="nonzero"></path>
                            <path d="M17.2683343,34.5923958 L12.8934475,38.9477965 L13.6827187,39.7315756 L14.409042,39.7315756 L17.3361245,36.8183287 C17.7017072,36.4541728 18.0430791,36.5602845 18.3505559,36.8641496 L21.2267958,39.7315756 L23.5413458,39.7315756 L18.4449779,34.6526865 C18.1273463,34.3327089 17.6172507,34.3065718 17.2683343,34.5923958 Z" id="Path" stroke="none" fill="#54565A" fill-rule="nonzero"></path>
                            <path d="M16.4500102,29.0673555 L9.71457294,35.7789169 L10.8645847,36.926852 L17.0577006,30.7579069 C17.6242327,30.1935859 18.229502,30.4082208 18.6168744,30.7940813 L19.4884623,31.6622675 L19.4884623,31.6622675 L27.584545,39.729164 L29.9039371,39.729164 L19.2221438,29.0890601 C18.4619053,28.3223215 17.2222547,28.3126156 16.4500102,29.0673555 L16.4500102,29.0673555 Z" id="Path" stroke="none" fill="#54565A" fill-rule="nonzero"></path>
                            <path d="M2.3908139,32.5352769 L1.40785649,31.5537442 C1.23503285,31.3680904 0.993591631,31.2607898 0.739447865,31.256692 C0.485304098,31.2525942 0.240502918,31.3520547 0.0617374729,31.5320396 L0.0617374729,33.8279097 C0.545952947,33.345584 1.03016842,33.4782236 1.44417265,33.8809655 L2.3908139,34.8142656 L2.3908139,34.8142656 L7.31044311,39.7146943 L9.622572,39.7146943 L2.3908139,32.528042 L2.3908139,32.5352769 Z" id="Path" stroke="none" fill="#54565A" fill-rule="nonzero"></path>
                            <path d="M0.146475181,37.7902149 L0.0641585503,37.8697986 L0.0641585503,39.7315756 L3.26966499,39.7315756 L1.30617124,37.7781568 C1.16180469,37.6068278 0.948007374,37.5088896 0.723462762,37.5112244 C0.49891815,37.5135591 0.287219849,37.6159215 0.146475181,37.7902149 L0.146475181,37.7902149 Z" id="Path" stroke="none" fill="#AAABAD" fill-rule="nonzero"></path>
                            <path d="M34.3635616,34.5923958 L29.9910959,38.9477965 L30.777946,39.7315756 L31.5042693,39.7315756 L34.4265096,36.8183287 C34.7920923,36.4541728 35.1334642,36.5602845 35.4409411,36.8641496 L38.319602,39.7315756 L40.6317309,39.7315756 L35.5426263,34.6526865 C35.2236833,34.3334798 34.7136427,34.3073992 34.3635616,34.5923958 Z" id="Path" stroke="none" fill="#54565A" fill-rule="nonzero"></path>
                            <path d="M33.5573429,29.0673555 L26.8098002,35.7789169 L27.9622331,36.926852 L34.1529279,30.7579069 C34.71946,30.1935859 35.3247293,30.4082208 35.7121017,30.7940813 L36.5836896,31.6622675 L36.5836896,31.6622675 L44.6797723,39.729164 L47.0015855,39.729164 L36.3173711,29.0890601 C35.5585164,28.3302837 34.3281299,28.320608 33.5573429,29.0673555 L33.5573429,29.0673555 Z" id="Path" stroke="none" fill="#54565A" fill-rule="nonzero"></path>
                            <path d="M19.4884623,32.5352769 L18.5030838,31.5537442 C18.3268536,31.3663161 18.0805637,31.259961 17.822761,31.259961 C17.5649584,31.259961 17.3186685,31.3663161 17.1424383,31.5537442 L11.3027997,37.3609451 L12.4576536,38.5112917 L17.1545437,33.8327329 C17.6387592,33.3504073 18.1375011,33.4782236 18.541821,33.8809655 L19.4884623,34.8142656 L19.4884623,34.8142656 L24.4056704,39.7146943 L26.7202204,39.7146943 C24.3136695,37.3175358 21.6044839,34.6213354 19.4884623,32.5111606 L19.4884623,32.5352769 Z" id="Path" stroke="none" fill="#54565A" fill-rule="nonzero"></path>
                            <path d="M17.2392814,37.7902149 L15.3024195,39.7195175 L20.386682,39.7195175 L18.4256093,37.7660986 C18.2792143,37.5871433 18.0582435,37.4853092 17.826542,37.4900193 C17.5948404,37.4947295 17.3782246,37.605459 17.2392814,37.7902149 L17.2392814,37.7902149 Z" id="Path" stroke="none" fill="#54565A" fill-rule="nonzero"></path>
                            <path d="M51.4733154,34.5923958 L47.0984286,38.9477965 L47.8852787,39.7315756 L48.6116019,39.7315756 L51.5362634,36.8183287 C51.899425,36.4541728 52.243218,36.5602845 52.5506948,36.8641496 L55.4269347,39.7315756 L57.7414847,39.7315756 L52.6426958,34.6526865 C52.3260226,34.3370285 51.8210134,34.3109913 51.4733154,34.5923958 L51.4733154,34.5923958 Z" id="Path" stroke="none" fill="#54565A" fill-rule="nonzero"></path>
                            <path d="M50.6404648,29.0673555 L43.9050275,35.7789169 L45.0574604,36.926852 L51.2505763,30.7579069 C51.8171084,30.1935859 52.4223777,30.4082208 52.8097501,30.7940813 L53.6813379,31.6622675 L53.6813379,31.6622675 L61.5571026,39.5097058 L61.5571026,37.2017776 L53.4101773,29.0890601 C52.6496564,28.3252329 51.4129561,28.3155416 50.6404648,29.0673555 L50.6404648,29.0673555 Z" id="Path" stroke="none" fill="#54565A" fill-rule="nonzero"></path>
                            <path d="M36.5836896,32.5352769 L35.5983111,31.5537442 C35.4220808,31.3663161 35.175791,31.259961 34.9179883,31.259961 C34.6601857,31.259961 34.4138958,31.3663161 34.2376656,31.5537442 L28.4004481,37.3609451 L29.555302,38.5112917 L34.249771,33.8327329 C34.7339865,33.3504073 35.2327284,33.4782236 35.6370483,33.8809655 L36.5836896,34.8142656 L36.5836896,34.8142656 L41.5008977,39.7146943 L43.8154477,39.7146943 L36.5836896,32.528042 L36.5836896,32.5352769 Z" id="Path" stroke="none" fill="#54565A" fill-rule="nonzero"></path>
                            <path d="M34.3369298,37.7902149 L32.3879625,39.7195175 L37.472225,39.7195175 L35.5111523,37.7660986 C35.3650998,37.5908523 35.1468121,37.4914844 34.9182043,37.4961796 C34.6895965,37.5008747 34.4756063,37.6091208 34.3369298,37.7902149 Z" id="Path" stroke="none" fill="#54565A" fill-rule="nonzero"></path>
                            <polygon id="Path" stroke="none" fill="#AAABAD" fill-rule="nonzero" points="61.5571026 36.3287682 61.5571026 35.2242424 61.0026759 35.7765053"></polygon>
                            <path d="M53.6813379,32.5352769 C53.1075426,31.9661326 52.7516442,31.6092117 52.6959595,31.5537442 C52.5197292,31.3663161 52.2734394,31.259961 52.0156367,31.259961 C51.7578341,31.259961 51.5115442,31.3663161 51.335314,31.5537442 L45.4956754,37.3705916 L46.6505293,38.5209383 L51.3474194,33.8423794 C51.8316348,33.3600538 52.3279557,33.4878701 52.7322756,33.890612 L53.6813379,34.8335586 L53.6813379,34.8335586 L58.5985461,39.7339873 L60.9155171,39.7339873 L53.6861801,32.5304537 L53.6813379,32.5352769 Z" id="Path" stroke="none" fill="#54565A" fill-rule="nonzero"></path>
                            <path d="M51.4321571,37.7902149 L49.4831898,39.7195175 L54.5674523,39.7195175 L52.6063796,37.7660986 C52.4598287,37.5916892 52.2417432,37.4929419 52.0134616,37.4976304 C51.7851801,37.5023189 51.5713661,37.6099366 51.4321571,37.7902149 Z" id="Path" stroke="none" fill="#54565A" fill-rule="nonzero"></path>
                            <path d="M10.0365762,14.4625347 L14.7358874,14.4625347 C15.4840003,14.4625347 16.0892697,14.966565 16.0892697,15.5863535 L16.0892697,18.9336935 C16.0892697,19.553482 15.4840003,20.0575123 14.7358874,20.0575123 L10.0365762,20.0575123 C9.2908844,20.0575123 8.68561506,19.553482 8.68561506,18.9336935 L8.68561506,15.5863535 C8.68561506,14.966565 9.2908844,14.4625347 10.0365762,14.4625347 Z" id="Path" stroke="#231F20" stroke-width="0.25" fill="url(#linearGradient-4)" fill-rule="nonzero"></path>
                            <path d="M10.8258475,14.4601231 C10.8258475,14.4601231 11.5521707,15.6321744 10.7532151,16.4883024 L10.7532151,16.4883024 C10.7532151,16.4883024 11.5570128,17.3685468 10.7532151,18.2873771 L10.7532151,18.2873771 C10.7532151,18.2873771 11.5594339,19.1603866 10.7532151,20.052689" id="Path" stroke="#231F20" stroke-width="0.43" fill="none"></path>
                            <path d="M16.0868486,16.432835 L13.9466162,16.432835 C13.9466162,16.432835 13.2856621,17.1225607 13.8207202,18.2343213 L13.8207202,18.2343213 C13.8207202,18.2343213 13.2905042,19.3074959 13.9296686,20.071982" id="Path" stroke="#231F20" stroke-width="0.43" fill="none"></path>
                            <line x1="11.4577486" y1="15.0461487" x2="13.3292415" y2="15.0461487" id="Path" stroke="#231F20" stroke-width="0.43" fill="none"></line>
                            <line x1="11.4577486" y1="19.6161843" x2="13.3292415" y2="19.6161843" id="Path" stroke="#231F20" stroke-width="0.43" fill="none"></line>
                            <path d="M50.0908802,32.2651433 L48.3961261,36.2950054 L47.2896937,36.2950054 L46.4568431,33.0778933 C46.4422614,32.9268774 46.3508298,32.7939083 46.2147353,32.7257955 C45.8863562,32.5678298 45.5388876,32.4527292 45.1809353,32.3833443 L45.2075672,32.2651433 L46.987059,32.2651433 C47.2285099,32.2624556 47.43507,32.4373464 47.4712745,32.6751513 L47.9119106,35.0071959 L48.9989743,32.2651433 L50.0908802,32.2651433 Z M54.4246087,34.9782563 C54.4246087,33.9147283 52.9477515,33.8568492 52.9574358,33.3817584 C52.9574358,33.2370607 53.1002794,33.0827165 53.402914,33.0441305 C53.7567721,33.0111461 54.1130209,33.0736212 54.434293,33.2250026 L54.6182949,32.3712862 C54.3049547,32.2530132 53.9728386,32.1917503 53.6377586,32.1904141 C52.6039585,32.1904141 51.8752142,32.7402653 51.8703721,33.5240445 C51.8703721,34.1028353 52.3909037,34.4284051 52.7855393,34.6213354 C53.1801749,34.8142656 53.3302817,34.9444935 53.3302817,35.1205424 C53.3302817,35.3906448 53.0034363,35.5112262 52.7032227,35.5160494 C52.3289073,35.5233031 51.9589219,35.435318 51.6282643,35.2604168 L51.4394203,36.1430728 C51.8095965,36.2874717 52.2039971,36.3603148 52.6015374,36.3577077 C53.7007066,36.3577077 54.4197665,35.817503 54.4246087,34.9782563 M57.155584,36.2950054 L58.1240149,36.2950054 L57.2839011,32.2651745 L56.3905235,32.2651745 C56.1956328,32.2657411 56.0200777,32.3826379 55.9450453,32.5618048 L54.3786082,36.2950054 L55.4753563,36.2950054 L55.6956743,35.6945099 L57.0417933,35.6945099 L57.155584,36.2950054 Z M55.9886247,34.8673214 L56.5382092,33.3528189 L56.8553704,34.8673214 L55.9886247,34.8673214 Z M51.5846849,32.2651745 L50.7203603,36.2950054 L49.6744549,36.2950054 L50.5387795,32.2651745 L51.5846849,32.2651745 Z" id="Shape" stroke="none" fill="#E1DEDE" fill-rule="nonzero"></path>
                        </g>
                    </g>
                </g>
            </g>
        </g>
    </g>
</svg>